<svg xmlns="http://www.w3.org/2000/svg" width="760" height="760" xmlns:v="https://vecta.io/nano"><path d="M372.953 209.805c16.551-.548 35.961 1.804 50.047 11.195l3-1c4.616 2.449 6.21 4.226 8 9l2.316 1.805c2.893 2.367 4.53 4.697 6.559 7.82 3.195 4.684 3.195 4.684 8.125 7.063l3 .313-.687 1.938c-.442 4.331.677 8.202 2.688 12.063l3 1v4l2-2 2 6 2.25.028c21.996.344 43.721 1.783 64.895 8.237 4.074 1.048 6.868 1.063 10.855-.266v2l-2 1c3.776.298 3.776.298 6-1v2l1.813.688C549 283 549 283 550.438 285.438c1.828 2.998 3.56 3.836 6.563 5.563l3 4h2c-1 3-1 3-3 4v11l2 1c.625 2.063.625 2.063 1 4l-2.25 1.313c-2.665 1.557-2.665 1.557-4.59 3.16-2.418 1.71-4.688 2.652-7.473 3.652l-2.738 1.008c-14.07 4.137-28.246 2.046-42.073-1.654-3.442-.878-6.936-1.441-10.435-2.045-10.196-1.811-10.196-1.811-13.441-3.434v4l2 2-2 2c3.84 2.913 7.543 5.268 11.938 7.25 4.634 2.266 6.729 4.19 9.063 8.75l4-2c1 3 1 3 1 5l3 2 2 2c2.533 1.297 5.106 2.487 7.688 3.684C520 353 520 353 522 356c3.385.729 6.713 1.228 10.146 1.641 3.659.55 5.469.899 7.885 3.793 1.14 3.021.717 4.491-.031 7.566l2 2c.301 1.875.301 1.875.313 4l.051 2.125L542 379l-3 2c-.25 3.458-.25 3.458 0 7 0 3 0 3-1 5a142.02 142.02 0 0 0-.562 5.625l-.254 3.039L537 404h2l-.219 2.598c-.635 7.254-.635 7.254-.719 14.527C538 424 538 424 536 427l-3 1-2 3-2.437.25L526 432l-1.25 3.438C523 439 523 439 520.957 439.836a71.29 71.29 0 0 1-4.703.777c-2.459.422-4.157 1.036-6.254 2.387l-1 3c-3.062 1.188-3.062 1.188-6 2 .703 2.977 1.582 5.853 2.563 8.75l.816 2.422L507 461h3l.313 2.188c.51 2.853.51 2.853 2.25 4.969 1.923 3.803 1.54 7.048 1.125 11.156l-.186 2.244L513 487h-2l-1 3h-1v2h-2l-1 7-5-2 .5 2.5c1.18 8.263.317 13.139-3.5 20.5h-2l-1 2-1.812-.5c-2.301-.611-2.301-.611-5.187-.5l-3.504-.105-4.059-.082-2.076-.076c-2.224-.066-2.224-.066-5.361.264l-2 3h-2l1-4c-5.735-.882-8.769 1.499-13.242 4.688L455 526h7l1 3-4 2c.176 2.379.697 3.702 2.402 5.379 1.504 1.242 3.049 2.435 4.598 3.621l1-3h2c1.983 2.142 2.929 3.526 3.363 6.438.777 3.125 1.752 3.922 4.262 5.875 3.744 3.058 6.787 6.339 9.832 10.086 1.557 1.864 1.557 1.864 4.543 2.602l1 3a141.49 141.49 0 0 0 5 5l2 2h3c2.188 1.875 2.188 1.875 4 4v2l-6 1 1.332 2.012c1.955 3.502 3.149 6.991 4.355 10.801l.682 2.1L508 599h3l1 5c2.343-.256 4.678-.593 7-1l1-2h3l2-2 2 3c1.938-2.773 1.938-2.773 3-5l13 1-5-1v-5l3-1 1-3a84.76 84.76 0 0 1 7 2c2.367-2.848 2.367-2.848 1.625-6.187L550 581h2l2-2 1 1.563c2.703 1.943 4.621 1.413 7.797.898a65.97 65.97 0 0 0 4.094-.984c12.65-3.436 26.404-1.586 39.109.523l9 1 1 5 1.688.25c3.01.976 4.934 2.702 7.313 4.75l-1 3 1 2a113.99 113.99 0 0 1 .193 5.652l.049 3.593.109 16.364.082 8.609.081 10.433.079 5.853c-.019 7.901-.889 14.908-5.592 21.495-2.895 1.895-5.667 3.092-9 4v2c-8.23 3.336-17.248 3.143-26 3v3l-3.812-.187c-3.357-.049-3.357-.049-6.187 1.688l-1 1.5v-2h-2l-1-4h-3l-6.187-1-3.293-.562L556 676v-2l-1.828-.043c-2.479-.148-4.759-.362-7.172-.957l-4-5c-2.99-.737-5.927-.928-9-1l-1-3-3-1-1 3-2.312-.125c-2.915-.096-2.915-.096-5.687 2.125l-3-1-1 4 4-1v4l-3 1-3-2c-1.765 3.088-2 4.233-2 8 0 3 0 3-1 5h-2v3l-3-1h-1l1 3-3 2-2-1-1 3c-2 2-2 2-4 3-.652 2.025-.652 2.025-1 4l-3-2-1 1c.067 2.721.196 5.41.375 8.125l.153 2.436.32 4.987.375 6.913.215 4.039.184 3.656c.103 2.973.103 2.973 2.379 4.844-.258 1.68-.617 3.344-1 5-.415 3.264-.733 6.539-1.062 9.813l-.275 2.678L493 760l-72.259.052-33.549.024-29.232.019-15.487.012-14.562.007-5.358.006-7.289.001-2.164.009c-4.872-.015-4.872-.015-7.1-1.129l-4 1c-1.74.088-3.484.122-5.227.12l-3.204.004-3.498-.011h-3.696l-10.022-.013-10.478-.008-19.836-.021-22.585-.022L177 760c-.125-2.875-.125-2.875 0-6l2-2 1 5 1-8-2-1h2v-27h1l.188-4.875.105-2.742L182 711l-3-2 2-2c.167-2.584.167-2.584 0-5h-2l-1 5h-1v-13c-2.081-4.553-5.347-7.179-9.16-10.254C166 682 166 682 164.941 679.848c-.853-2.208-.853-2.208-3.941-2.848v-48h-2c-.074-3.858-.111-7.296 1-11l1-5h1c.201-5.78.092-11.091-1.187-16.75-1.024-5.047-.25-7.635 2.188-12.25.346-1.325.658-2.659.938-4 1.26-5.408 3.764-10.346 8.063-14l-1-2v-3h-2l1-3c2.427-1.213 4.335-1 7-1l4-8-3-3-2-2v-2h2l1-5 1.75.5c2.517.645 2.517.645 6.25.5 2.264-2.264 2.831-4.043 4-7 1.603-3.282 2.369-4.692 5.688-6.312L199 524l-1-6h6c1.414-2.639 2.372-5.071 3-8l-2.812-2.562-1.582-1.441L201 505l-3 1-2-2-4-3 2-3h2l-3-6h-2l-.312-3.5c-.396-3.723-1.054-7.332-1.832-10.993-2.684-12.887-2.971-25.626.145-38.507h-4l-1 2c-.187-2.812-.187-2.812 0-6 1.5-1.687 1.5-1.687 3-3v-3l3-2-1-3-2 1c-1-3-1-3-.125-5.062L188 418l1-2 2 1-1 2 2 1c.625 2.563.625 2.563 1 5l1.715-3.43L202 407l-5.875 1.375-3.305.773c-2.924.641-2.924.641-4.82 2.852-.493 2.034-.493 2.034-.812 4.313-.911 4.52-2.472 6.808-6.187 9.688h-2l-.375 2.875C178 432 178 432 176 434v3c-1.812 1.063-1.812 1.063-4 2l-3-1c-2.143.389-2.143.389-4 1-3.206-4.808-2.947-7.421-2-13h-2v-10h2v-3.437c0-6.403.817-12.497 3-18.562l3-1c1.82-1.72 1.82-1.72 3.563-3.812l1.816-2.082c1.68-2.025 1.68-2.025 2.648-4.305C178 381 178 381 181 380l1-2 3 2c2.277-2.815 2.277-2.815 2-6h6l1 2 12.125-3.687 3.461-1.029c6.217-1.934 10.818-3.618 15.414-8.283 4.657-4.657 9.893-6.894 16-9 1.2-5.282 1.2-5.282-1-10l-2-1 1-2c-.716-1.993-.716-1.993-1.812-4.25-5.533-13.267-4.765-27.456-2.875-41.375l.356-2.676c.853-5.831 2.307-11.171 4.331-16.699l1-3c-1.872-2.694-1.872-2.694-4-5h2l1-2h2l.875-1.812C243 262 243 262 245 259c2.625-.187 2.625-.187 5 0l.785-1.777c1.3-2.379 2.704-3.912 4.652-5.785l1.809-1.754 3.402-3.199c1.997-2.193 2.54-4.674 3.352-7.484 6.75-1 6.75-1 9-1 1.897-.957 3.769-1.964 5.625-3l3.039-1.687L284 232l-2-4 3-2c.73-2.563.73-2.563 1-5l2.063.875c2.871.426 2.871.426 4.547-1.039l1.703-1.586c5.782-5.359 11.593-6.788 19.41-6.547 3.015.393 4.984 1.309 7.277 3.297v2l2.762-.77c11.299-3.041 22.636-4.797 34.238-6.23l3.148-.406c3.93-.435 7.857-.594 11.805-.789zM289 225l1 3zm186 89l4 1zm1 3l1 2zm1 9v2l3-1-3-1zm-233 23l1 2zm-62 31l1 2zm-15 15l1 2zm-1 2l1 4zm-1 5v5h1v-5h-1zm371 3l1 3zm-1 5v5h1v-5h-1zm-1 5l1 3zm-371 2v8h1v-8h-1zm370 2l1 3zm-1 3l1 2zm3 0l1 2zm-357 1v2h2v-2h-2zm353 1l1 2zm-340 5l1 3zm-1 3l1 3zm-3 2l1 2zm313 10l1 2 4-2h-5zm12 30l1 2zm-1 9l1 2zm-314 16l1 2zm1 3l1 2 2-1-3-1zm-16 39l-1 5 1-2h2v-3h-2zm-15 34l1 3zm-1 4l1 2zm-1 3l1 3zm-1 4l1 4zm455 4l3 3-1-3h-2zm-456 1v10h1v-10h-1zm383 0l1 2 1-2h-2zm-2 4l1 2zm-35 7l1 3zm1 3l1 3zm1 4l1 2zm6 47l4 1zm0 2l1 4zm2 1v2h2v-2h-2zm4 0v2l-2 1 2 2 2-3-2-2zm-7 5l1 3zm-354 3l1 4zm352 4l1 2zm-351 3l1 2zm440 0l4 1zm-40 1v1h12v-1h-12zm32 0v1h5v-1h-5zm-18 1v1h17v-1h-17zm-3 2l-1 3h2l-1-3zm2 0v1h6v-1h-6zm-393 19v12h1v-12h-1zm309 0l1 2zm-2 1l1 3zm2 37v12h1v-12h-1z" fill="#0b0a08"/><path d="M293 390l.227 2.457c1.38 11.619 5.129 20.31 14.293 27.832 4.232 2.919 8.699 4.865 13.48 6.711l2.688 1.086c2.748 1.063 5.507 2.012 8.313 2.914l2.844.914c15.626 4.309 31.897 3.068 47.156-1.914l2.82-.875c12.854-4.513 25.639-15.814 33.18-27.125 3.188-.875 3.188-.875 7 0 2.813 3.387 4.857 7.166 7 11 3.142 5.056 6.723 8.737 11.328 12.52C445 427 445 427 446 429l-1.906-.586c-5.336-1.623-10.671-3.109-16.094-4.414v4l2.531.355c3.769.7 7.339 1.751 10.969 2.957l1.934.607c3.314 1.094 5.816 2.26 8.66 4.311 3.633 2.212 4.852 1.574 8.906.77 3.27.926 3.27.926 6.813 2.313 5.834 2.208 11.043 3.023 17.25 3.375 4.125.297 7.12.556 10.273 3.477 1.562 2.584 2.67 4.989 3.664 7.836l1.129 2.324c1.196 3.675 1.002 6.819.871 10.676l-3.402.953c-7.069 2.011-13.917 4.008-20.586 7.133-11.939 5.425-23.724 4.572-36.324 2.414-17.645-2.956-35.284-2.51-52.687 1.5-13.226 2.289-27.872 2.689-39.937-3.625l-2.12-1.079c-4.724-2.472-8.77-5.327-12.857-8.757-7.501-5.535-17.908-7.813-27.086-6.539-4.825 2.165-7.657 5.28-10 10-.846 5.304-1.169 10.303 1.938 14.813L301 486l1.738 1.527C314.069 497.23 327.924 502.689 342 507l4.188 1.688c3.993 1.535 8.079 2.152 12.297 2.785 2.003.301 4.004.625 5.991 1.02 8.042 1.533 15.922 1.848 24.077 1.823l6.541.046c8.722.038 16.802-.825 25.329-2.673 12.746-2.451 24.502.287 36.577 4.312v2c-7.882 3.509-15.63 6.801-24 9v2c-21.467 19.815-55.576 19.687-83 19l-2.643-.059C308.748 546.975 266.875 541.827 233 522l-1.852-1.078C222.987 516.097 215.837 510.591 209 504l-1.957-1.629c-8.707-7.569-13.155-21.952-14.344-33.227-.135-2.93-.166-5.836-.136-8.77l.021-3.161c.361-17.584 5.741-33.797 14.964-48.753 1.57-2.463 1.57-2.463 2.453-5.461 2.426-.83 4.696-1.453 7.188-2l2.211-.514 4.498-1.018 5.365-1.25c20.517-4.737 42.619-8.554 63.738-8.219z" fill="#468d3b"/><path d="M209 520l3 1 .304 2.117c3.812 34.078 3.812 34.078 20.696 62.883 2.303 1.677 4.396 2.807 7 4v2l2.012.586 2.676.789 2.637.773L250 595l2.742.594C255 597 255 597 255.934 600.508l.504 4.617c1.144 9.173 3.198 17.939 5.582 26.864l.774 2.941.704 2.601c1.276 6.26 1.276 6.26-.575 9.157-7.831 5.348-20.676 5.844-29.859 7.063l-2.903.387c-5.766.713-11.35.982-17.159.863l-6-21-.596-2.114c-5.622-20.211-9.493-40.874-8.404-61.886l-4 1c-.775 13.632 1.315 25.832 4.376 39.092.639 2.978 1.151 5.955 1.632 8.963.905 5.638 2.129 11.152 3.492 16.695l.645 2.668 1.259 5.158 1.149 4.741c.976 4.041 1.842 7.377 4.447 10.683 2.052.651 2.052.651 4 1l.535 2.263 2.403 10.112.842 3.563.811 3.398.746 3.142c.565 2.494.565 2.494 1.664 4.522 2.345.335 2.345.335 5 0 2.035-1.721 2.035-1.721 3.688-4 1.067-1.363 2.164-2.704 3.313-4h2l2.5 6.375 1.406 3.586C241 692 241 692 241 694c3.67-.949 4.791-1.649 6.766-4.969l1.484-3.531 1.516-3.531L252 679l1-2 7.605 3.07 2.582 1.055 2.605 1.07c2.129.919 2.129.919 4.207.805.455-9.14.068-16.475-3.027-25.195-.908-2.62-1.624-5.054-1.973-7.805l1.438-1.375c1.902-1.629 1.902-1.629 1.767-4.768-.21-3.961-.904-7.358-1.92-11.189l-.531-2.05-1.692-6.43c-2.31-8.71-4.505-17.148-5.062-26.187 10.445 1.139 20.695 2.348 30.879 5.016 9.929 2.477 19.376 3.358 29.621 3.359l3.599.004c6.315.13 6.315.13 11.901-2.379 1.008-2.179 1.008-2.179 1.688-4.625l.762-2.477L338 595c3.242.572 4.764 1.422 6.945 3.871l1.574 1.74 1.605 1.826 3.195 3.559 1.415 1.599c1.052 1.168 2.153 2.293 3.265 3.405-.196 5.038-3.199 9.092-5.687 13.313-4.753 8.313-8.367 16.587-11.312 25.688l-.957 2.82c-4.798 16.214-4.274 34.601-4.614 51.358l-.085 3.271-.057 2.885c-.308 2.858-1.102 5.059-2.287 7.665l3 1v3c-14.767-1.591-29.36-3.619-43.824-7.035-3.867-.912-7.753-1.696-11.652-2.463L271.281 711c-8.242-1.735-16.394-3.244-24.781-4.062A111.25 111.25 0 0 1 226 703l-3.246-.906-6.992-2.008-7.867-2.172c-14.034-3.768-28.37-8.386-36.895-20.914l-1.637-2.145c-4.122-8.633-2.563-20.127-2.551-29.543v-2.371c.018-11.272.311-22.503.999-33.754l.212-3.673c.809-11.676 2.093-23.609 7.913-33.952l1.014-1.904 2.035-3.77c1.04-1.939 2.01-3.903 2.974-5.881 2.013-4.052 4.308-7.875 6.727-11.695l1.312-2.082c5.802-9.146 11.707-18.189 19.001-26.231z" fill="#e6d8b7"/><path d="M444 528l3.941 4.813c2.544 2.703 5.4 4.861 8.371 7.063 5.004 3.722 9.441 7.662 13.77 12.172 1.618 1.648 3.233 3.09 5.043 4.516 26.004 22.047 34.076 59.555 37.111 91.96.578 8.555-.069 15.865-4.236 23.477l-1.355 2.617c-6.83 12.342-16.602 16.126-29.535 20.32-4.781 1.374-9.602 2.371-14.484 3.313-16.567 3.215-33.056 7.315-49.289 11.926-4.738 1.171-9.529 1.991-14.336 2.824l-.288-2.161c-2.973-24.212-2.973-24.212-9.798-47.55-1.005-2.516-1.477-4.868-1.914-7.539-.679-4.098-1.513-8.134-2.425-12.185l-3.2-14.752-.695-3.193-.656-3.1-.596-2.778c-.681-4.369-1.115-7.583 1.182-11.452l2.141-2.664c3.395-4.4 5.961-8.571 8.25-13.625 3 0 3 0 5.5 2.313 2.5 2.688 2.5 2.688 3.875 4.563 1.741 1.44 1.741 1.44 4.875 1.063 10.972-2.743 18.227-11.285 24.461-20.309 3.81-7.77 4.771-15.246 4.664-23.816l.035-2.865c-.018-4.337-.144-7.907-1.996-11.873C431 538 431 538 431.039 535.766c1.341-2.464 2.985-3.509 5.336-5.016l2.398-1.578C441 528 441 528 444 528z" fill="#e8d9b8"/><path d="M460.102 302.027c2.557 1.31 3.801 2.932 5.523 5.223l1.789 2.328c3.809 5.816 3.823 10.631 3.586 17.422l-14.404.482-4.888.166c-8.67.306-17.084.528-25.708-.648v-2c2.09-1.48 2.09-1.48 4.938-3.187 4.707-2.895 9.021-6.019 13.285-9.527C446 311 446 311 448 311v-2c2.047-1.762 2.047-1.762 4.75-3.687l2.672-1.949C458 302 458 302 460.102 302.027zM425 322v6h11v1l2.301.028c43.126.666 43.126.666 54.762 11.597C495 343 495 343 495 345l-3 1c3.176 3.782 5.63 4.679 10.438 5.563 4.477.835 7.813 1.795 11.563 4.438v1l-16.437-1.562c-5.834-.689-11.698-.519-17.562-.437l-1 3h-2c-.503 11.82-.503 11.82 4.578 22.152 3.441 2.625 6.765 2.369 10.922 2.348 7.719-.039 7.719-.039 10.938 2.184 1.805 2.675 2.435 4.714 3.063 7.879l.719 3.465.375 1.91L510 409.625l.509 2.471c1.113 5.341 2.427 10.569 4.073 15.775.498 2.538.544 3.785-.582 6.129-7.171 4.756-15.201 5.487-23.562 5.563l-2.632.044c-6.159-.099-6.159-.099-9.395-2.642L477 435v2c-6.776-.652-12.418-2.92-18.437-5.937l-2.115-1.055c-5.058-2.61-5.058-2.61-6.975-4.569-1.524-1.699-1.524-1.699-4.472-2.439-4-4.457-4-4.457-4-7h-2c-1.542-2.034-2.971-4.061-4.375-6.187-4.008-6.143-4.008-6.143-8.625-11.812-4.581-.654-6.74-.762-10.687 1.625-1.782 1.83-3.391 3.651-5 5.625L408 408h-2l-1 3c-1.437 1.688-1.437 1.688-3 3h-2l-1 3-3 1-1.676 1.863c-3.159 2.904-6.497 3.95-10.512 5.324-4.765 1.331-4.765 1.331-8.812 3.813-1.519.072-3.042.084-4.562.063l-2.504-.027L366 429c-1.681-3.708-2.309-6.804-2.527-10.859l-.213-3.383-.383-6.969c-.602-9.434-1.897-18.809-8.877-25.789-2.137-.146-2.137-.146-4.578.086l-2.77.129-5.758.391c-6.826.258-6.826.258-9.869-2.202-5.233-6.567-5.198-13.114-5.15-21.153l.008-2.404c.128-15.857.128-15.857 2.117-17.846 1.527-.075 3.057-.083 4.586-.062l2.82.023 5.914.078 2.828.023 2.599.035c2.423-.002 2.423-.002 5.252-1.098 2.258.252 4.507.576 6.75.938 18.888 2.769 34.991 1.456 50.805-9.344C421.206 322 421.206 322 425 322z" fill="#131413"/><path d="M217 524c2.656 2.656 4.436 4.491 6.438 7.438C232.398 543.393 242.155 551.401 256 557l3.508 1.453c10.589 3.933 21.609 5.436 32.737 7.09 2.451.407 4.815.947 7.228 1.531 8.386 1.726 17.125 1.403 25.652 1.551l5.5.117L344 569l2 6 1.484-2.977C350 569 350 569 353.891 568.414a105.11 105.11 0 0 1 4.359.211l2.258.082c1.832.07 3.662.178 5.492.293-3.53 2.841-6.617 3.826-11 5l-2.25 1.125C351 576 351 576 348 576l1 2c4.292.464 7.369-.403 11.313-1.937 10.101-3.807 10.101-3.807 14.688-3.062 2.33 1.795 3.396 3.464 5 6l-1.977.918c-5.33 2.555-9.588 5.201-14.023 9.082h-2l-.75 1.813c-1.414 2.474-2.901 3.621-5.25 5.188l1 5 1.375-1.5C360 598 360 598 362 598l.738-1.781c3.398-5.975 11.179-10.294 17.262-13.219 2.938-.25 2.938-.25 5 0 1.549 2.368 2 3.835 2 6.688-1.211 4.012-3.194 6.878-5.625 10.262-1.538 2.098-1.538 2.098-2.375 5.051l-4 4c-2.059 2.623-4.037 5.304-6 8-3.824-.754-4.738-1.853-7-5l-3-1v-2l-2.215.758C354 610 354 610 351.684 608.305l-2.246-2.43-2.355-2.508c-1.536-1.746-3.014-3.544-4.457-5.367-1.55-2.273-1.55-2.273-4.625-3l-.297 1.863-.453 2.449-.422 2.426c-1.069 2.92-2.179 3.666-4.828 5.262-2.631.404-2.631.404-5.629.434l-3.356.034-3.577-.03-3.69-.019c-9.492-.163-18.08-1.543-27.246-3.841-4.937-1.14-9.943-1.928-14.939-2.765l-5.809-.98-2.49-.415c-2.117-.39-4.183-.87-6.264-1.417l2.75 12.563.823 3.741c1.697 7.636 3.536 15.183 5.763 22.681.758 3.441.882 6.503.664 10.016a101.46 101.46 0 0 1-3 3c.213 2.696.924 4.813 1.938 7.313 3.385 8.562 3.275 16.637 3.063 25.688-4.799 1.6-8.557-.963-13-3-1.696-.95-3.383-1.922-5-3l-.551 1.758c-3.697 11.49-3.697 11.49-7.449 15.242h-4l-1.937-4.687-1.09-2.637c-.93-2.558-1.514-4.998-1.973-7.676h-2l-.687 1.688c-1.725 3.039-3.634 5.07-6.312 7.313-2.812.313-2.812.313-5 0-2.899-5.093-4.071-10.008-5.187-15.687l-.537-2.588C215.6 666.405 215 663.398 215 660l-2.25-.062c-3.347-1.141-4.151-2.62-5.791-5.662-1.924-4.565-2.683-9.425-3.584-14.276l-1.227-6.312-.585-3.006c-.689-3.278-1.641-6.462-2.564-9.681-.554-2.843-.998-5.7-1.437-8.562-.872-5.553-1.899-10.977-3.25-16.437-1.874-8.295-1.571-16.552-1.312-25l5-1 .008 3.215c.438 23.384 5.509 46.697 12.574 68.914 1.339 4.302 2.015 8.387 2.418 12.871 26.794-.886 26.794-.886 50-10-.105-6.645-1.655-12.589-3.437-18.937-2.696-9.615-3.817-19.125-4.562-29.062l-2.168-.371c-2.883-.64-5.418-1.564-8.145-2.691l-2.676-1.098L240 592v-2l-1.789-.344c-6.247-1.854-10.275-7.749-13.754-12.922-3.983-7.475-6.347-15.332-8.27-23.547l-.693-2.771-.639-2.686-.573-2.394c-.322-2.666.068-4.746.718-7.337h1l1-14z" fill="#18140f"/><path d="M190 697c8.154 1.643 16.008 3.89 23.938 6.375a272.38 272.38 0 0 0 54.172 10.949c9.17.975 18.047 3.158 27.032 5.186l2.033.458 4.203.956c8.018 1.827 15.793 3.313 24.012 3.924 10.009.783 15.283 3.067 21.961 10.669l3.127 3.744c4.216 4.814 9.605 8.696 14.828 12.352L367 753v2c-17.926.217-35.626.098-53.496-1.562-5.179-.467-10.307-.54-15.504-.437l-2 7-41.307.207-19.179.095-18.498.078-7.068.043-9.877.031-2.971.044-2.715-.017-2.36.011C190 760 190 760 188.249 758.197c-1.909-3.359-1.644-6.692-1.561-10.447l.028-2.557c.158-8.678.687-17.343 1.222-26.005l.131-2.122.396-6.085.238-3.566c.304-3.497.769-6.945 1.297-10.415z" fill="#905c37"/><path d="M356 608l3 1v2l1.813.25c2.798.959 3.492 2.39 5.188 4.75l3 1 .875-1.875C371 613 371 613 373 611h4v-2h2l.516 2.945 2.009 11.371.978 5.552 1.56 8.82.491 2.823c.835 4.665 1.884 9.005 3.446 13.49.519 2.667.932 5.337 1.34 8.023.614 3.129.614 3.129 2.059 6.563 2.098 5.4 3.149 11 4.289 16.664l.682 3.258c.878 4.28 1.631 8.107 1.631 12.492l-2 1c-.453 2.26-.838 4.534-1.187 6.813-1.337 6.659-1.337 6.659-3.352 8.898-1.773.977-1.773.977-5.461 2.289l-2.43 1.414c-5.278 2.345-10.724 3.223-16.383 4.273l-3.447.682c-6.313 1.199-12.323 2.326-18.74 1.631-2.41-1.969-2.41-1.969-4.062-4.5l-1.723-2.531L338 719l-3 4-4-1h3l-1-3-2-1 .473-1.917c.707-4.136.815-8.226.957-12.415l.223-5.611.322-8.753c.895-25.54 5.687-48.121 19.526-69.929 2.266-3.622 3.059-6.014 2.5-10.375l1-1z" fill="#170906"/><path d="M454.352 275.832l3.451-.01 7.185-.007 10.821-.039c33.08-.084 33.08-.084 48.629 5.037l2.53.803c11.287 3.663 20.257 7.221 27.032 17.385.771 5.11 1.531 10.762-1.496 15.188C548.096 318 548.096 318 545 318l1-2.375c1.278-4.631 1.797-8.859 1-13.625-1.424-2.421-2.99-3.99-5-6v-2l-2.75-.812C536 292 536 292 534.219 290.527c-14.206-9.779-39.467-5.725-55.437-2.973-7.239 1.685-12.704 5.289-18.781 9.445l-5.187 3.125c-4.851 3.064-9.171 6.579-13.562 10.25-7.321 6.098-14.943 10.992-23.25 15.625l-2.691 1.555C392.996 340.315 368.748 341.727 344 336c-5.445-1.514-10.753-3.379-16.057-5.321-2.946-1.03-5.933-1.857-8.943-2.679 1-3 1-3 2.648-4.008l2.157-.902 2.43-1.046 2.64-1.107c13.066-5.673 25.736-12.089 37.867-19.57 6.872-4.161 14.026-7.875 21.258-11.367l2.305-1.18c8.547-4.182 17.515-6.484 26.695-8.82l3.625-.945c11.153-2.761 22.271-3.211 33.727-3.223z" fill="#b1272f"/><path d="M392.063 216.75l2.779-.062c6.262-.036 11.361.943 17.158 3.313l-1 4 2.813.813c2.95 1.099 4.244 1.812 6.188 4.188l1-3c12.919 9.954 12.919 9.954 18 16v2h2c3.458 4.422 9 12.361 9 18l-2.126.088c-20.8.953-42.47 2.775-61.874 10.912l-2.919 1.202L373 278.438l-3.445 1.447c-4.801 2.03-9.527 4.053-14.117 6.525C352 288 352 288 349.89 287.739c-2.949-1.153-3.694-3.2-5.202-5.926l-1.852-3.324c-1.738-3.302-3.391-6.633-5.023-9.988-3.512-7.218-7.668-13.987-11.989-20.748l-1.542-2.479-1.404-2.206C322 241 322 241 322.257 238.801 323 237 323 237 324.609 235.91l2.141-.848 2.477-1L332 233l2.961-1.187c7.121-2.813 14.325-5.31 21.602-7.684l8.188-2.816c4.242-1.43 8.551-2.175 12.965-2.883 5.009-.942 9.065-1.651 14.348-1.68z" fill="#ad282f"/><path d="M484 699c3.025 9.076 2.182 19.725 2.188 29.188l.037 3.596c.016 9.687-1.072 18.42-2.225 28.217H383l-2-6h-9c2.066-4.131 4.522-6.593 7.813-9.687 5.676-5.513 9.422-10.786 12.316-18.207 3.254-7.412 3.254-7.412 7.805-9.363 3.684-.795 7.324-1.299 11.066-1.742 2.758-.436 5.503-.936 8.25-1.437l3.766-.621c3.075-.62 5.795-1.632 8.684-2.852 5.809-2.416 11.729-3.757 17.863-5.09l6.887-1.535 3.373-.747 8.51-2.027 2.359-.584 4.233-1.078c6.063-1.492 6.063-1.492 9.076-.029z" fill="#905c38"/><path d="M299 231h2l-.812 2L296 244l-1.07 2.48c-3.828 14.492-1.518 31.471 3.07 45.52l1.168 4.172c2.255 7.98 5.086 14.963 9.832 21.828l2.375 3.625L313 324c-6.625 3-6.625 3-10 3v2c-10.861 3.504-21.74 6.841-32.754 9.832l-8.273 2.367-3.723 1.113-3.234.988c-3.108.721-5.837.828-9.016.699l-4.625-11-.727-1.812c-1.68-5.666-1.813-11.446-1.773-17.312l.012-2.247c.134-13.351 1.349-25.41 7.113-37.628l.973-2.062c3.439-7.114 3.439-7.114 6.027-9.937h2l.805-1.789c7.23-13.373 26.794-22.622 40.473-27.555 1.726-.523 1.726-.523 2.723-1.656z" fill="#b2272f"/><path d="M313.625 462.938l2.141.014L321 463v2l3.121.23c4.409.875 6.466 2.284 9.941 5.082C348.816 482.042 363.521 484.514 382 483c3.947-.523 7.86-1.234 11.781-1.923 15.958-2.557 38.697-4.251 54.219.923 3.516.283 7.037.278 10.563.313l2.885.088c7.02.062 12.247-1.386 18.553-4.4l3.242-1.449 5.313-2.5c5.416-2.327 10.76-2.946 16.445-1.051 2 3 2 3 1.938 5.813-1.629 5.538-5.788 9.926-10.59 13.086-15.292 7.175-36.659 5.497-52.785 2.602-10.943-1.922-21.925-1.811-33-1.812l-2.757-.01c-9.792-.021-19.213.286-28.889 1.875-6.281.964-12.585.647-18.916.448l-2.414-.02C342.62 494.2 325.348 485.237 314 476v-2l-4 1v2c3.488 2.905 7.268 5.419 11 8l2.02 1.461c6.097 4.171 12.983 6.333 19.98 8.539l2.949.98c7.299 2.076 14.452 2.296 21.988 2.332l2.958.017A105.73 105.73 0 0 0 386.695 497c8.103-1.238 16.065-1.348 24.242-1.312h2.324c10.21.015 20.038.619 30.134 2.236 8.263 1.237 16.457 1.355 24.792 1.326l3.907-.01c7.676-.076 15.267-.478 22.905-1.24 1.322 2.645 1.097 4.678 1.063 7.625l-.027 3.039L496 511c-5.381 3.576-9.085 4.63-15.5 4.438l-2.386-.04c-8.991-.272-17.528-2.162-26.192-4.487-13.155-3.462-25.279-4.22-38.672-1.41-20.935 4.279-42.832 2.187-63.25-3.5l-2.744-.747c-10.262-2.872-19.753-6.686-29.131-11.753l-2.468-1.329a48.78 48.78 0 0 1-12.251-9.736c-1.367-1.552-1.367-1.552-3.406-2.436-1.218-3.653-1.391-6.158-1-10 3.858-6.464 7.55-7.147 14.625-7.062z" fill="#c46c69"/><path d="M366 217c-2.937 1.572-5.803 2.624-9 3.551l-2.923.86-3.077.901c-13.755 3.599-13.755 3.599-26.051 10.328C323 234 323 234 319 234v2l-2 1c.549 4.57 2.37 7.411 4.938 11.188 3.694 5.548 7.049 11.217 10.25 17.063 3.959 7.225 8.065 14.324 12.41 21.324C346 289 346 289 347 292c5.36-.505 9.2-1.849 13.938-4.375 4.943-2.578 9.79-4.807 15.063-6.625 6.323-2.289 12.474-4.902 18.633-7.598 14.358-5.98 29.01-6.697 44.367-6.715l2.198-.01 6.239.022 3.684.026C454 267 454 267 456 269v3l-1.73.012c-32.671.406-59.632 9.706-87.738 25.568l-14.157 7.794-2.764 1.514c-4.531 2.473-9.078 4.891-13.708 7.173l-3.864 1.935-5.789 2.878-1.957 1.008c-4.667 2.262-4.667 2.262-7.527 1.602-2.186-1.837-3.657-3.748-5.266-6.109l-1.719-2.477c-3.932-6.398-6.522-12.635-8.406-19.898l-.617-2.289-1.189-4.521-1.152-4.27c-3.454-12.674-2.831-31.442 2.834-43.482.881-1.501 1.796-2.982 2.75-4.437l1.133-1.984c4.508-6.634 12.547-7.982 19.867-10.016l3.41-1.035c4.173-1.121 8.326-1.908 12.59-2.59l2.491-.4c7.551-1.128 14.885-1.283 22.509-.975z" fill="#c9bdad"/><path d="M217 524c2.49 2.298 4.505 4.676 6.438 7.438C232.398 543.393 242.155 551.401 256 557l3.508 1.453c10.589 3.933 21.609 5.436 32.737 7.09 2.451.407 4.815.947 7.228 1.531 8.386 1.726 17.125 1.403 25.652 1.551l5.5.117L344 569c-.74 3.141-1.777 5.78-3.187 8.688-2.691 5.783-4.794 11.706-6.844 17.737-1.874 5.482-1.874 5.482-2.968 6.575-4.997.236-10 .099-15 0l-3.641-.051c-10.913-.406-21.384-2.521-32.062-4.695-6.965-1.415-13.96-2.611-20.99-3.653A46.59 46.59 0 0 1 232 579c-4.675-6.588-7.513-13.406-9.75-21.125l-.899-3.025c-2.923-10.208-4.497-20.203-4.351-30.85z" fill="#e5d7b6"/><path d="M549 605h2l1.813 2.188c5.478 5.775 15.741 8.436 23.521 8.974 12.193.213 23.815.003 35.667-3.161l1-1c1.666-.041 3.334-.043 5 0l.275 20.233.103 6.882.111 9.897.078 3.103c.003 7.139.003 7.139-2.917 10.966-7.336 5.313-14.837 7.231-23.821 7.219l-2.312.013-4.82.002a618.59 618.59 0 0 0-7.273.046c-20.107.084-20.107.084-26.152-4.743-4.178-4.661-4.397-8.874-4.403-14.888l-.004-3.693.012-3.85-.012-3.814.004-3.705.003-3.366c.137-3.493.603-6.847 1.129-10.302.128-1.466.237-2.933.316-4.402l.127-2.256.119-2.279.131-2.361L549 605z" fill="#c1b6a8"/><path d="M440 353l4.813-.062 2.707-.035C450 353 450 353 453 354l7.188.438c5.493.306 10.544.95 15.813 2.563l.113 2.816c.566 10.871.566 10.871 5.461 20.332 3.444 2.629 6.765 2.373 10.926 2.352 7.719-.039 7.719-.039 10.938 2.184 1.805 2.675 2.435 4.714 3.063 7.879l.719 3.465.375 1.91L510 409.625l.509 2.471c1.113 5.341 2.427 10.569 4.073 15.775.498 2.538.544 3.785-.582 6.129-9.915 6.575-21.673 5.508-33 5-2.446-4.415-3.755-8.555-4.562-13.5l-.375-2.181c-1.17-7.208-1.8-14.463-2.329-21.743-.448-9.027-.448-9.027-4.734-16.576-4.082-.57-5.726-.174-9.25 2.063-3.876 2.417-7.072 2.277-11.512 1.617-3.345-1.016-4.565-2.682-6.238-5.68l-1.187-1.937c-2.118-5.376-1.967-11.065-1.937-16.75l-.012-2.299c.006-3.261.098-5.899 1.137-9.014z" fill="#dfdfe0"/><path d="M295 349c.243 6.849-.244 13.183-1.488 19.918-.83 4.998-1.171 10.03-1.512 15.082-5.028 1.508-9.69 2.187-14.937 2.5-4.746.287-9.128.812-13.73 1.965-3.987.915-8.037 1.436-12.082 2.035-2.889.445-5.754.953-8.625 1.5-5.848 1.099-11.729 1.816-17.633 2.535-2.868.144-2.868.144-3.992 1.465-1.519.072-3.042.084-4.562.063l-2.504-.027L212 396v2l-12.75 3.438-3.656.986-3.516.947-3.237.873c-1.707.454-3.424.877-5.154 1.237-1.897.37-1.897.37-2.749 2.457L180 410l-3 2c-.724 2.059-.724 2.059-1 4h-2l-2 10-3 1c-.491-12.03.355-24.48 8.125-34.062 6.793-7.271 13.424-10.508 23.027-12.558 4.636-.99 8.552-2.451 12.848-4.38l3.375-.937c2.944-.863 5.427-1.839 8.188-3.125 3.511-1.616 6.607-2.355 10.438-2.937l7-3 5.688-1.355c2.735-.762 5.301-1.778 7.938-2.832 7.087-2.803 14.314-5.073 21.596-7.313 4.007-1.244 7.922-2.496 11.755-4.21C292 349 292 349 295 349z" fill="#141414"/><path d="M332.375 338.75c8.639.046 17.139 1.773 25.625 3.25l.12 1.709.63 7.791.188 2.688c.637 7.215 2.475 12.507 6.949 18.223 2.617 1.969 4.717 2.43 7.926 3.027 5.577 1.253 8.922 2.76 13.188 6.563 2.047 3.234 2.412 6.196 2.781 9.973l.363 3.475.711 7.242.363 3.471.311 3.176c.325 2.88.325 2.88 2.471 5.664.125 3.188.125 3.188 0 6l-2.379.988-3.184 1.324-3.336 1.375c-2.313.979-4.54 2.017-6.789 3.125-4.214 1.511-7.887 1.458-12.312 1.188-1.681-3.708-2.309-6.804-2.527-10.859l-.213-3.383-.383-6.969c-.602-9.434-1.897-18.809-8.877-25.789-2.137-.146-2.137-.146-4.578.086l-2.77.129-5.758.391c-6.826.258-6.826.258-9.869-2.202-5.233-6.567-5.198-13.114-5.15-21.153l.008-2.404c.145-17.979.145-17.979 6.492-18.096z" fill="#dedede"/><path d="M221 520c4.014 1.448 7.648 3.389 11.382 5.427 9.31 5.067 18.574 9.211 28.618 12.573l3.461 1.18a109.22 109.22 0 0 0 18.413 4.291c2.957.501 5.763 1.195 8.653 1.987 6.612 1.684 13.195 2.482 19.973 3.168l6.844.727 3.006.307c2.65.341 2.65.341 4.525.854 2.323.533 4.393.622 6.776.633l2.786.019 3.005.003 3.142.01 6.61.007 9.914.039c19.89.054 40.259-.434 58.893-8.225l3-1c-2.142 4.968-5.899 7.639-10 11l-1.59 1.457c-5.556 4.679-12.446 5.323-19.41 6.543l-2.859.59c-11.811 2.394-23.873 2.57-35.887 2.613l-3.801.017-7.893.02-11.953.072c-12.635.052-24.351-.158-36.607-3.312l-6.687-1c-24.028-3.65-44.056-13.053-58.812-32.875-3.5-4.833-3.5-4.833-3.5-7.125z" fill="#468a3c"/><path d="M194 570h4l.008 3.215c.438 23.384 5.509 46.697 12.574 68.914 1.339 4.302 2.015 8.387 2.418 12.871 26.794-.886 26.794-.886 50-10 .243-2.669.243-2.669.125-5.625l-.055-3.039L263 634l3-1v3h2c1.182 3.695 1.28 7.144 1 11a101.46 101.46 0 0 1-3 3c.213 2.696.924 4.813 1.938 7.313 3.385 8.562 3.275 16.637 3.063 25.688-4.799 1.6-8.557-.963-13-3-1.696-.95-3.383-1.922-5-3l-.551 1.758c-3.697 11.49-3.697 11.49-7.449 15.242h-4l-1.937-4.687-1.09-2.637c-.93-2.558-1.514-4.998-1.973-7.676h-2l-.687 1.688c-1.725 3.039-3.634 5.07-6.312 7.313-2.812.313-2.812.313-5 0-2.899-5.093-4.071-10.008-5.187-15.687l-.537-2.588C215.6 666.405 215 663.398 215 660l-2.25-.062c-3.347-1.141-4.151-2.62-5.791-5.662-1.924-4.565-2.683-9.425-3.584-14.276l-1.227-6.312-.585-3.006c-.689-3.278-1.641-6.462-2.564-9.681-.554-2.843-.998-5.7-1.437-8.562-.872-5.553-1.899-10.977-3.25-16.437-1.852-8.251-1.795-16.59-1.312-25l1-1z" fill="#0e1109"/><path d="M382 217l9.938-.187 2.807-.076c6.311-.066 11.415.862 17.256 3.264l-1 4 2.938.875C417 226 417 226 418 228h3l.805 1.828 1.07 2.422 1.055 2.391c1.005 2.326 1.005 2.326 2.203 4.281 1.149 2.755 1.001 5.126.867 8.078l-1.725.411-7.838 1.901-2.713.646c-3.99.979-7.778 1.964-11.514 3.693-3.302 1.386-5.476 1.697-9.023 1.598l-2.832-.047C389 255 389 255 387 254l-.25 2.375C386 259 386 259 384.438 260.188c-2.794.931-5.613 1.573-8.48 2.238-2.594.761-4.661 2.171-6.957 3.574h-4l-.367-1.715-.508-2.223-.492-2.215c-.462-2.055-.462-2.055-2.633-2.848l1 3.25c1 3.75 1 3.75 1 7.75l-10 3-1.102-2.422c-3.123-6.822-6.353-13.548-9.797-20.215C341 246 341 246 341 244c4.486-2.626 7.79-3.786 13-3 1.938 2.5 1.938 2.5 3 5l-.125-3.375C357 239 357 239 359 237c2.688-.27 5.291-.087 8 0l6 13-.176-3.395-.137-4.418-.127-2.236c-.049-2.158-.049-2.158.439-5.951 2.395-1.949 2.395-1.949 5-3l2-1c2.859-.457 2.859-.457 6 0a34.58 34.58 0 0 1 4.25 6.313l1.023 1.803L394 243l2 3-.621-1.871A74.35 74.35 0 0 1 392 227c3.539-1.926 5.937-2.346 10-2l3 2 .375-1.875C406 223 406 223 408 221c-5.447-2.226-10.578-2.427-16.375-2.625l-2.809-.117L382 218v-1z" fill="#2d0809"/><path d="M390 666c2.161 3.241 2.702 5.491 3.508 9.277l.801 3.744.406 1.948 1.25 5.872C398 696.461 398 696.461 398 701l-2 1c-.453 2.26-.838 4.534-1.187 6.813-1.337 6.659-1.337 6.659-3.352 8.898-1.773.977-1.773.977-5.461 2.289l-2.43 1.414c-5.278 2.345-10.724 3.223-16.383 4.273l-3.447.682c-6.313 1.199-12.323 2.326-18.74 1.631-2.41-1.969-2.41-1.969-4.062-4.5l-1.723-2.531L338 719l-3 4-4-1h3l-1-3-2-1 .467-1.882c.74-4.327.884-8.631 1.069-13.013l.13-2.871.397-9.047.275-6.146L334 670h1c.11 11.389-.05 22.646-1 34 5.964-.762 11.582-2.561 17.313-4.312l3.014-.896c7.26-2.207 14.018-4.963 20.799-8.354 5.651-2.825 10.546-4.792 16.875-5.437.25-2.916.25-2.916 0-6l-3-2c-.856-3.556-1.393-5.979-.062-9.437L390 666z" fill="#190905"/><path d="M500.973 288.499l6.97-.085c9.4-.074 16.589 1.11 25.057 5.586l2.134 1.002c4.359 2.186 6.758 4.615 8.866 8.998.632 3.037.457 4.798 0 8-3.136 4.243-6.011 5.629-11 7-2.651.313-5.218.553-7.875.688l-2.146.116c-11.374.529-11.374.529-16.667-2.179-5.168-2.535-10.71-3.413-16.312-4.625l-8-2v-2l-1.758-.078c-5.558-.404-9-1.223-13.242-4.922v-3h-2c.188-1.84.188-1.84 1-4 2.188-1.379 2.188-1.379 5-2.562l2.75-1.191L477 292l1.774-.802c7.158-2.903 14.6-2.721 22.199-2.699z" fill="#761a1f"/><path d="M427 541h2c1.437 4.985 1.264 9.973 1.313 15.125l.088 3.016c.085 10.028-2.559 17.585-9.463 24.906L419 586l-2.125 2.203c-2.858 2.921-5.465 5.523-8.875 7.797-4.813-.129-7.512-2.818-10.812-6l-1.588-1.495c-4.476-4.266-8.616-8.777-12.599-13.505l-1.598-1.82C378 569.256 378 569.256 378 567l2.352-.297c20.185-2.794 32.071-8.98 45.648-23.703l1-2z" fill="#e5d7b6"/><path d="M316 219v4l-9 3-.25 3.125c-.829 4.283-2.353 6.279-4.75 9.875-2.763 6.828-3.687 13.688-4 21l-.195 3.727c-.354 9.702 1.265 17.967 4.195 27.273l.945 3.441c2.817 10.027 6.972 18.851 14.055 26.559l4-1.25 2.25-.703c3.725-1.418 7.203-3.236 10.75-5.047l3.93-1.93c6.746-3.318 13.347-6.705 19.75-10.656 3.284-2.001 6.646-3.836 10.035-5.652l7.539-4.117c25.614-14.04 51.407-20.99 80.746-19.645l1 2 36 1v1l-1.828.025-19.082.293-7.093.104c-17.599.238-34.258.998-51.372 5.453l-2.996.738c-9.453 2.404-18.142 5.967-26.816 10.387l-1.998 1c-5.47 2.759-10.772 5.724-15.971 8.973-10.279 6.424-21.031 11.655-32.033 16.725l-5.855 2.777-2.971 1.416-2.681 1.298C320 326 320 326 317 325l1-1-3-1v2l-6 1 3-3-1.102-1.328C303.365 312.169 299.1 301.642 296 290l-.91-3.02c-2.125-8.014-2.432-15.844-2.527-24.105l-.067-3.286c.029-10.553 2.848-19.7 8.505-28.589l-5 1-1-3 3-1-3-1c1.173-3.649 3.391-5.443 6.715-7.25 4.614-1.514 9.493-1.033 14.285-.75z" fill="#200b0b"/><path d="M394 706h1c.613 3.827.882 7.204 0 11-2.424 2.208-4.759 3.478-7.715 4.879-2.43.906-2.43.906-3.285 3.121l4-1c-.592 2.023-1.28 4.019-2 6l-1.187 3.688c-1.724 3.055-2.967 3.36-6.41 4.422-3.777.818-7.572 1.39-11.402 1.891v2h9l-1 3h-2l-1 4h-4v3h4v2h9l2 6-29.233.052-13.573.024-13.091.019-5.002.011-6.989.008-2.103.011c-4.78-.01-4.78-.01-7.008-1.124-1.712.087-3.422.241-5.125.438l-2.758.309L296 760c.875-6.875.875-6.875 2-8 7.187-.5 14.409.301 21.563.938 15.791 1.322 31.601 1.699 47.438 2.063v-2l-1.582-.652c-3.4-1.895-6.175-4.364-9.105-6.91l-1.868-1.61c-5.047-4.392-9.823-8.986-14.445-13.827l5-4v2c25.024-1.949 25.024-1.949 47-12 1.367-3.321 1.847-6.425 2-10z" fill="#1f0b07"/><path d="M446.638 330.684l7.87-.046c12.955-.049 28.564.498 38.555 9.986C495 343 495 343 495 345l-3.007-.032-11.233-.078-4.826-.041c-8.852-.094-17.236.145-25.983 1.697-4.696.723-9.335.708-14.076.642l-2.781-.002c-6.669-.044-6.669-.044-10.094-1.186a99.49 99.49 0 0 0-4.309-.465l-2.514-.236-5.219-.461-2.518-.24-2.291-.203c-2.401-.441-4.098-1.072-6.151-2.395l-1-3 6-2.875 3.375-1.617c11.845-4.469 25.783-3.855 38.263-3.823z" fill="#468a3c"/><path d="M613 612h5l.275 20.233.103 6.882.111 9.897.078 3.103c.003 7.137.003 7.137-2.91 10.962-6.975 5.047-12.924 6.083-21.364 6.02l-2.198-.004-6.907-.031-4.701-.014L569 669v-1l16-1-1-2c3.228-2.152 4.284-2.201 8-2l-.184-1.706c-1.18-11.138-2.156-22.082-1.816-33.294h4l2 4.313 1.125 2.426C598 637 598 637 598 640c1.959-.033 1.959-.033 4-1 1.333-2.737 1.333-2.737 2.188-6 1.761-5.948 1.761-5.948 2.813-7 1.666-.041 3.334-.043 5 0l.063 11.375.025 3.215c.02 6.537-.282 12.922-1.088 19.41h4c1.018-6.714 1.15-13.279 1.125-20.062l.012-3.182c-.007-5.36-.193-10.477-1.137-15.756h-7c.813-2.437.813-2.437 2-5l3-1v-3z" fill="#c8bdae"/><path d="M616.32 594.414C618 596 618 596 619 598v7c-4.828 1.149-7.835.736-12.5-.875-6.832-2.326-12.83-3.252-20.059-3.258l-2.144-.003c-1.488-.001-2.977.001-4.465.005a1305.46 1305.46 0 0 1-6.78-.006l-4.361.004-3.963.003c-3.763.059-3.763.059-7.584.712C554 602 554 602 552 600.813c-1-1.812-1-1.812-.937-3.75 2.055-4.521 5.743-6.745 10.125-8.75l2.668-1.262c17.064-5.702 38.526-3.996 52.465 7.363z" fill="#746e65"/><path d="M389 698l5 1 .125 6.75.07 3.797c-.184 3.262-.289 4.863-2.195 7.453-11.194 8.969-33.063 12.418-47 11-2.41-1.863-2.41-1.863-4.062-4.312l-1.723-2.426C338 719 338 719 338 716l2.387-.516c11.018-2.451 21.551-5.319 31.762-10.184 4.348-1.983 8.819-3.62 13.297-5.285 2.45-.779 2.45-.779 3.555-2.016z" fill="#e04745"/><path d="M382 217l9.938-.187 2.807-.076c6.311-.066 11.415.862 17.256 3.264l-1 4 2.938.875C417 226 417 226 418 228h3l.805 1.828 1.07 2.422 1.055 2.391c1.005 2.326 1.005 2.326 2.203 4.281 1.149 2.755 1.001 5.126.867 8.078l-1.757.427-7.931 1.948-2.764.672c-5.236 1.285-5.236 1.285-10.299 3.109-2.939 1.102-5.436 1.037-8.562.969l-3.238-.055L390 254l1-2h4c-4.982-11.231-4.982-11.231-13.594-19.137-2.713-.341-2.713-.341-6.406.137 4.005-2.67 6.132-3.708 11-3a34.58 34.58 0 0 1 4.25 6.313l1.023 1.803L394 243l2 3-.621-1.871A74.35 74.35 0 0 1 392 227c3.539-1.926 5.937-2.346 10-2l3 2 .375-1.875C406 223 406 223 408 221c-5.447-2.226-10.578-2.427-16.375-2.625l-2.809-.117L382 218v-1z" fill="#2a0607"/><path d="M385 662l1.5 6.75.844 3.797C388 676 388 676 388 680l-14.105 6.684-8.008 3.852C357.762 694.465 347.119 699 338 699l1-17c4.74-1.823 9.506-3.546 14.313-5.187l3.051-1.043C359 675 359 675 362 675v-2l3.324-1.645 4.363-2.168 2.186-1.08c3.083-1.534 6.078-3.077 9.021-4.869C383 662 383 662 385 662z" fill="#de4645"/><path d="M362 220l-6 2 4 2-2.013.655C340.41 229.496 340.41 229.496 324 237c-.908 1.78-.908 1.78-1 4 1.025 2.526 1.025 2.526 2.684 5.113l1.801 3.012 1.953 3.187 3.895 6.516 1.917 3.201c2.869 4.865 5.496 9.841 8.103 14.85 1.807 3.422 3.713 6.77 5.648 10.121 4.771-.64 8.61-2.588 12.875-4.687C369.79 278.5 377.793 275.136 386 272l3.582-1.473c5.847-2.18 11.953-3.356 18.043-4.652l3.582-.801c10.832-2.327 21.599-3.25 32.668-3.137l3.555.027L450 262v1l-15 2 19 1v1l-2.652.044c-22.396.416-42.427 1.354-63.348 9.956l-6.149 2.266c-1.917.76-3.714 1.648-5.538 2.609-4.594 2.379-9.408 4.106-14.262 5.879-3.063 1.158-3.063 1.158-5.723 2.867-3.315 1.963-5.552 1.928-9.328 1.379-5.539-4.867-8.633-13.329-11.965-19.828l-2.16-4.172-1.114-2.148c-3.598-6.802-7.729-13.236-12.039-19.608l-1.511-2.295-1.366-2.021c-1.048-2.391-.722-3.521.155-5.928h2v-2l2.875-1.187c2.971-1.263 5.814-2.684 8.672-4.184 5.453-2.737 11.014-4.685 16.828-6.504l2.941-.969 2.832-.898 2.537-.808c2.485-.483 3.942-.259 6.315.55z" fill="#180807"/><path d="M261 653c5.74 15.56 5.74 15.56 5 24-2.966-.424-4.891-.93-7.437-2.562-3.066-1.72-5.102-1.679-8.562-1.437l-.805 1.828-1.07 2.422-1.055 2.391c-.974 2.148-2 4.258-3.07 6.359-3.461-2.925-3.695-5.627-4.375-9.941-.501-2.435-.501-2.435-3.625-4.059l-1.898 2.188-2.477 2.813-2.461 2.813L227 682h-2l-1.437-3.75-.809-2.109c-1.438-4.084-1.868-7.541-1.816-11.891l.027-2.984L221 659l2.104-.228 9.646-1.085 3.309-.357c6.667-.769 13.015-1.957 19.489-3.733C258 653 258 653 261 653z" fill="#46893b"/><path d="M360 617l2.188 1.938c2.794 2.049 4.429 2.676 7.813 3.063l.813-1.937C372 618 372 618 375 617l1.5 6.063.844 3.41c1.26 6.775 1.26 6.775.656 10.527-2.128 2.498-4.669 4.231-7.375 6.063l-2.217 1.574C347.964 659 347.964 659 342 659c.462-6.968 2.047-12.394 4.875-18.75l1.066-2.496c2.566-5.924 5.648-11.209 9.246-16.566l1.605-2.395L360 617z" fill="#e14846"/><path d="M460.102 302.027c2.557 1.31 3.801 2.932 5.523 5.223l1.789 2.328c3.929 6 3.586 8.528 3.586 16.422h-43v-2c2.218-1.729 4.436-3.347 6.75-4.937l3.797-2.652 1.818-1.257c1.349-.951 2.662-1.954 3.963-2.969C446 311 446 311 448 311v-2c2.047-1.762 2.047-1.762 4.75-3.687l2.672-1.949C458 302 458 302 460.102 302.027z" fill="#458a3b"/><path d="M232 522c4.791.634 8.605 2.627 12.875 4.75 35.065 16.868 74.633 19.198 112.875 20.375l7.965.262L385 548v2c-7.381.775-14.678 1.169-22.098 1.203l-3.106.021-9.859.026-3.389.004c-19.601-.005-38.69-.505-57.735-5.572-2.847-.691-5.663-1.153-8.563-1.557-16.444-2.645-32.512-9.544-47.25-17.125v-2h2v-2l-3-1z" fill="#030f02"/><path d="M380 642l1.625 6.25.914 3.516c.461 3.234.461 3.234-.016 5.41-2.325 2.784-5.333 4.173-8.523 5.762l-2.049 1.052-4.077 2.067-4.772 2.468C356.676 671.868 350.339 675 343 675v2h-4l-.125-4.25-.07-2.391c.225-2.714.602-4.143 2.195-6.359 2.398-1.238 2.398-1.238 5.375-2.312 10.22-4.02 18.931-9.62 27.437-16.487 3.992-3.2 3.992-3.2 6.188-3.2z" fill="#e2a95e"/><path d="M385 583c1.549 2.368 2 3.835 2 6.688-1.211 4.012-3.194 6.878-5.625 10.262-1.538 2.098-1.538 2.098-2.375 5.051l-4 4c-2.059 2.623-4.037 5.304-6 8-3.129-.309-4.107-1.106-6.395-3.363l-2.418-2.949-2.457-2.926C356 605 356 605 356.148 602.754c1.004-2.068 2.058-3.319 3.852-4.754h2l.738-1.781c3.708-6.52 14.628-14.144 22.262-13.219z" fill="#df4746"/><path d="M615 621c2.263 6.33 2.299 12.259 2.25 18.938l.023 3.17c-.015 5.983-.536 11.163-2.273 16.893h-4l1-34-5 1-4 12-5 1-2-4.875-1.125-2.742C594 630 594 630 594 628h-4l.219 2.359c.876 10.56.877 21.052.781 31.641h-3l-.402-3.867-.535-5.008-.264-2.551-.264-2.441-.238-2.253c-.213-1.964-.213-1.964-1.297-3.879-.072-2.884-.093-5.742-.062-8.625l.014-2.43L585 625c2.525-1.262 4.312-1.099 7.125-1.062l2.758.027L597 624c1.461 2.647 2 3.894 2 7h2l1-8c4.537-1.452 8.181-2.235 13-2z" fill="#352e28"/><path d="M299.909 751.869c5.316.02 10.54.29 15.831.791 21.681 2.037 43.5 2.004 65.259 2.339l2 5-29.233.052-13.573.024-13.091.019-5.002.011-6.989.008-2.103.011c-4.78-.01-4.78-.01-7.008-1.124-1.712.087-3.422.241-5.125.438l-2.758.309L296 760c1.01-7.932 1.01-7.932 3.909-8.131z" fill="#090402"/><path d="M570 625c2.16 1.656 2.906 2.583 3.512 5.262l.176 2.426.199 2.449L574 637l3 1h-2l-1 4-7 1-2 7h4v-3h5c1.579 1.579 1.208 3.194 1.25 5.375l.078 2.398C575 657 575 657 573.73 658.766c-2.962 2.113-6.282 1.722-9.73 1.234-2.375-1-2.375-1-4-3-1.858-6.016-2.309-11.479-2.25-17.75l-.023-2.535.008-2.449.007-2.194c.3-2.403 1.014-4.003 2.259-6.071 3.389-2.541 6.032-2.097 10-1z" fill="#c5baac"/><path d="M570 620c2.976 1.776 5.428 3.855 7 7l.063 5.125-.027 2.758L577 637h-3l-.297-1.863c-.877-5.001-.877-5.001-3.453-9.262-3.079-1.198-5.095-.698-8.25.125l-2 1c-1.358 4.073-1.224 7.859-1.25 12.125l-.062 2.477c-.037 5.817.725 11.121 3.313 16.398 2.229 1.114 3.531 1.165 6 1.188l2.125.043c2.12-.065 2.12-.065 3.875-2.23.243-2.211.243-2.211.125-4.625l-.055-2.477L574 648l-5-1v3h-4c-.187-2.375-.187-2.375 0-5 2.969-1.979 3.657-2.294 7-2.312l2.063-.051c1.938.363 1.938.363 3.668 1.48 1.87 2.773 1.631 5.011 1.582 8.32l-.012 3.434c-.286 2.977-.586 4.703-2.301 7.129-5.833 1.944-11.918 1.967-17.5-.625-6.077-5.773-6.371-12.351-6.625-20.27l-.062-4.293-.04-2.089c-.006-4.022.335-7.152 2.227-10.723 4.762-4.396 8.517-5.659 15-5z" fill="#211d19"/><path d="M376 574c2.313 2.563 2.313 2.563 4 5l-1.977.918c-5.33 2.555-9.588 5.201-14.023 9.082h-2l-.789 1.793c-1.288 2.347-2.583 3.757-4.586 5.52l-1.773 1.613C353 599 353 599 351.043 598.902c-2.623-1.158-4.302-2.655-6.355-4.652l-2.176-2.047C341 590 341 590 341.082 587.422c1.192-3.145 2.716-4.771 5.676-6.373l1.937-.802 2.157-.898 2.272-.91 2.319-.937c14.927-5.912 14.927-5.912 20.556-3.5z" fill="#dfa75e"/><path d="M310 474c4 0 4 0 5.836 1.75L318 478l6.625 4 1.88 1.059A99.77 99.77 0 0 0 342 490l2.297.867c11.946 4.325 25.443 4.208 37.855 2.129 9.876-1.485 19.759-1.211 29.723-1.121l5.879.027L432 492v1l-37 1 31 1v1l-2.715.06-10.187.257-4.369.104c-8.621.19-16.926.795-25.463 2.128-5.05.696-10.048.833-15.14.825l-3.124-.005c-8.882-.141-16.572-1.586-25.001-4.37l-2.926-.84C326.516 490.845 317.324 484.14 309 477l1-3z" fill="#220b0a"/><path d="M297 335v8c-12.015 4.551-24.12 8.757-36.321 12.783-7.168 2.368-14.292 4.816-21.37 7.44C237 364 237 364 235 364v-2l5.813-2 3.27-1.125C247 358 247 358 250 358l-.125-3.25c.114-3.407.338-4.957 2.125-7.75h6v-2l3.551-.734c7.917-1.675 15.554-3.426 23.109-6.383 3.916-1.478 8.129-2.883 12.34-2.883z" fill="#46833b"/><path d="M502.43 283.879c10.296-.287 21.176.748 30.57 5.121l2.266 1.023c5.67 2.798 10.052 6.115 12.734 11.977.809 4.481.997 8.3-1.348 12.297L545 316c-3 0-3 0-5-1l1.5-1c1.944-2.592 1.995-4.765 1.82-7.949-.557-3.569-1.587-5.773-4.32-8.051-4.214-2.306-8.553-4.193-13-6l-2.226-1.056c-3.467-1.18-6.734-1.306-10.356-1.351l-2.218-.035-4.652-.04-6.945-.145c-12.308-.172-22.783 2.626-33.604 8.625l-2 2 1-5-2-1c11.094-8.498 25.918-9.448 39.43-10.121z" fill="#190102"/><path d="M391 686v7c-9.543 4.317-19.248 8.186-29 12l-2.121.836C352.582 708.69 345.874 710.8 338 711v-7l3.664-1.137c18.794-5.461 18.794-5.461 36.336-13.863 2.309-1.069 4.646-2.031 7-3 2.491-1.245 3.411-.777 6 0z" fill="#dea760"/><path d="M316 219v4l-9 3-.25 3.125c-.829 4.283-2.353 6.279-4.75 9.875-2.761 6.824-3.697 13.69-4 21l-.16 3.832c-.209 7.621.335 14.539 2.504 21.91C301 288 301 288 301 290h-2l1 10c-1.98-3.959-3.046-7.734-4.062-12l-.525-2.156L294 280l-.542-1.881c-1.031-4.767-.73-9.762-.771-14.619l-.088-3.398c-.081-10.816 2.599-19.985 8.4-29.102l-5 1-1-3 3-1-3-1c1.173-3.649 3.391-5.443 6.715-7.25 4.614-1.514 9.493-1.033 14.285-.75z" fill="#280708"/><path d="M549 605h2l1.813 2.188c5.114 5.39 14.058 7.589 21.188 8.813l-1 6-3-1c-4.17-.154-7.941.016-12 1l-1 3-2 1c-1.345 3.644-1.34 7.593-1.562 11.438l-.129 2.121c-.365 6.482-.409 12.95-.309 19.441l-4 1c-.919-3.132-1.129-5.94-1.133-9.199l-.006-3.131.014-3.357.006-3.451c.059-11.966.536-23.911 1.119-35.862z" fill="#c5bbac"/><path d="M434 545h1l.188 10.375.076 2.926c.152 15.145-6.026 24.029-16.264 34.699-4.333 4.204-8.165 7.597-14.379 8.25-3.324-.317-4.503-1.382-6.934-3.625l-2.113-1.898C394 594 394 594 394 592l-5-1c-.125-2.875-.125-2.875 0-6l2-2 1.574 1.609c5.332 5.661 5.332 5.661 11.426 10.391 5.902-.528 8.891-4.086 13-8l1.93-1.738c6.771-6.32 10.011-13.225 10.387-22.465l.127-2.969.119-3.078.131-3.125L430 546h1l1 5h1l1-6z" fill="#191510"/><path d="M412.563 224.938L416 225c3.256 6.164 5.724 12.414 8 19l-5 1-1.375-2.937c-1.283-3.133-1.283-3.133-3.625-4.062v9c-3.351-1.676-4.544-2.544-7-5l-3-1 1 1.75c1 2.25 1 2.25 1 6.25-2.25.063-2.25.063-5-1-1.732-2.847-2.842-5.884-4-9l-1.25-2.75c-.843-2.53-.901-4.601-.75-7.25 3.188-.812 3.188-.812 7-1 2.938 2.438 2.938 2.438 5 5l.438-3.437c.718-4.548.718-4.548 5.125-4.625z" fill="#c76d68"/><path d="M353.891 568.414l4.359.211 2.258.082L366 569c-3.53 2.841-6.617 3.826-11 5l-2.25 1.125C351 576 351 576 348 576c1 2.5 1 2.5 5 4l-10 3c-1.211 3.105-1.211 3.105-1 7 2.192 3.249 4.659 5.933 8 8 2.719-.178 2.719-.178 5-1l.551 1.793c1.406 4.42 2.824 8.332 5.449 12.207h-2v-2l-2.215.758C354 610 354 610 351.684 608.305l-2.246-2.43-2.355-2.508c-1.536-1.746-3.014-3.544-4.457-5.367-1.55-2.273-1.55-2.273-4.625-3l-.402 1.934-.535 2.504-.527 2.496C336 604 336 604 335 605c-1.666.041-3.334.043-5 0 1.974-6.971 4.308-13.712 7-20.437l1.039-2.678 1.023-2.568.91-2.299c1.079-2.118 2.263-3.444 4.027-5.018l2 3 1.484-2.977C350 569 350 569 353.891 568.414z" fill="#110b07"/><path d="M194 570h4l.008 3.215c.455 24.311 5.864 48.632 13.445 71.652C212 647 212 647 212 651l-3 1-2 2-3.431-13.704-1.103-4.433c-2.173-8.735-4.001-17.448-5.386-26.344-.719-4.574-1.658-9.021-2.768-13.52-1.852-8.251-1.795-16.59-1.312-25l1-1z" fill="#181410"/><path d="M530 611c3.017 1.498 5.12 3.195 7 6 .438 3.875.438 3.875 0 7h-3l-2.375-2.437c-2.726-2.661-3.922-3.245-7.625-3.562l1 5-5 3c.573 2.867.861 3.861 3 6v3l-4 1c1.269 3.914 2.512 5.791 6 8-1.152 2.468-2.048 4.048-4 6h-4c-5.755-27.672-5.755-27.672-2.187-34.437 4.434-5.194 8.695-5.671 15.188-4.562z" fill="#47873e"/><path d="M341 652h2l-1 7 3.75-.937L354 656c-.129 1.875-.129 1.875-1 4-2.652 1.063-2.652 1.063-5.937 2-3.312 1.107-3.312 1.107-6.062 3-1.65 3.981-1.973 7.715-2 12h4v-2l8-1 1 4-12 4-2 17h6l-1 4-5 1-1 3v-3h-3c-.146-9.652.068-19.29.375-28.937l.094-3.517c.213-6.146.752-11.652 2.531-17.546l4 1v-3z" fill="#140a07"/><path d="M362.289 239.949c4.231 1.64 5.233 4.898 7.086 8.863l1.113 2.197c2.877 5.934 2.877 5.934 1.512 9.99l-5 1-3-8-5 1 1 11-5 1c-4.126-6.778-7.86-14.063-9-22 1-1 1-1 3.563-1.062L352 244l3 6h5l-.254-1.934-.309-2.504-.316-2.496L359 241c1-1 1-1 3.289-1.051z" fill="#c36d69"/><path d="M271 596c6.266-.185 11.561.411 17.625 1.875 13.901 3.102 28.192 3.451 42.375 4.125l-1 3 4 1c-11.945 5.973-33.638.758-46.123-2.521-2.543-.648-5.109-1.13-7.689-1.604A65.73 65.73 0 0 1 270 599l1-3z" fill="#1d1913"/><path d="M395 493l19.476-.11 6.613-.041 9.555-.044 2.943-.031c5.821-.001 11.195.62 16.9 1.761 3.314.614 6.564.788 9.93.879l3.857.117 3.912.094 4.041.117L482 496c-1.163 1.969-1.163 1.969-3 4-2.454.502-2.454.502-5.391.496l-3.309.008-3.551-.067-3.629-.033c-12.086-.223-25.548-.547-37.121-4.404-2.438-.153-4.853-.257-7.293-.316l-2.139-.063-6.755-.183-4.584-.131L394 495l1-2z" fill="#0e0202"/><path d="M289 715c7.085.435 13.974 1.476 20.931 2.841 5.379 1.052 10.77 1.891 16.202 2.632 3.083.567 5.918 1.473 8.867 2.527l2-7c2.387 2.963 4.735 5.943 7 9l-2 4-1.818-.389c-6.206-1.29-12.394-2.207-18.682-2.986-7.279-.948-14.458-2.098-21.625-3.687l-2.24-.492c-3.445-.796-6.568-1.658-9.635-3.446l1-3z" fill="#140b07"/><path d="M577.313 603.625l3.201-.004c9.252.123 17.664 1.694 26.486 4.379v2l-3.437.438c-3.37.174-3.37.174-4.562 1.563-4.263.314-8.54.279-12.812.313l-3.584.088c-8.252.059-14.96-1.294-22.604-4.4v-2c5.72-2.436 11.201-2.383 17.313-2.375z" fill="#7c5135"/><path d="M387 724c1 2 1 2 .207 4.531-3.646 7.763-3.646 7.763-7.789 9.637-3.177.566-6.191.761-9.418.832l-3.75.23c-9.539.368-9.539.368-12.656-2.254L352 735l1-3 3.629-.48c10.62-1.492 20.328-3.721 30.371-7.52z" fill="#dba561"/><path d="M466 698l-2 1 4 3-2.272.487-10.415 2.263-3.572.766C438.495 707.48 438.495 707.48 427 713c-5.07.931-9.871 1.09-15 1v-2l-2-2 5.281-1.32 3.459-.865 7.566-1.887 18.756-4.764 3.295-.851 6.176-1.622 2.811-.722 2.443-.643c2.387-.352 3.938-.072 6.213.674z" fill="#160f0a"/><path d="M385 234c1.879 2.328 1.879 2.328 3.563 5.25 1.775 3.034 3.43 5.742 5.715 8.422L396 250l-1 3h-4v-2h-7l.125 2.375C384 256 384 256 382 258h-3c-1.975-7.638-2.575-15.133-3-23 3.318-2.089 5.307-2.424 9-1z" fill="#c5716f"/><path d="M526 282c12.01 2.914 20.93 6.394 28 17 .771 5.11 1.531 10.762-1.496 15.188C548.096 318 548.096 318 545 318l1-2.375c1.278-4.631 1.797-8.859 1-13.625-1.424-2.421-2.99-3.99-5-6v-2l-2.75-.812c-3.25-1.187-3.25-1.187-5-2.656-3.041-2.07-5.904-2.519-9.5-3.219l-3.828-.762L518 286v-1h9l-1-3z" fill="#a22730"/><path d="M402 476v2l44 1v2l29-1c-1 2-1 2-2.744 2.617-2.491.423-4.827.513-7.354.516l-2.928.004-3.037-.012-3.049.012-2.924-.004-2.668-.003C448 483 448 483 445 482c-18.361-2.152-37.759-2.392-55.962.926-8.986 1.579-17.946 1.335-27.038 1.074v-1l3.43-.184 4.445-.254 2.262-.119c4.063-.159 4.063-.159 7.863-1.443l-1-2 9.25-1.5 2.645-.434 2.559-.41 2.349-.381C398 476 398 476 402 476z" fill="#22110c"/><path d="M362 220l-6 2 4 2-2.013.655-19.081 6.358-5.156 1.728c-7.645 2.501-7.645 2.501-12.5 8.572L320 245c-2.062-2.25-2.062-2.25-4-5 .25-2.312.25-2.312 1-4h2v-2l2.875-1.187c2.971-1.263 5.814-2.684 8.672-4.184 5.453-2.737 11.014-4.685 16.828-6.504l2.941-.969 2.832-.898 2.537-.808c2.485-.483 3.942-.259 6.315.55z" fill="#220f0d"/><path d="M356 612c1.125 1.5 1.125 1.5 2 4-1.142 6.436-3.459 11.482-6.875 17.063-2.606 4.467-4.277 9.31-6.074 14.145C344 650 344 650 343 652h-2v3l-3 1c.417-6.195 1.554-11.424 4-17.125l.915-2.186c2.855-6.592 6.427-12.654 10.265-18.712 1.911-2.875 1.911-2.875 2.82-5.977z" fill="#1b0f0c"/><path d="M316 219v4l-9 3-.25 3.125c-.821 4.24-2.259 6.403-4.75 9.875-.716 1.646-1.403 3.307-2 5l-2-1c-.295-5.023.015-7.895 3-12l-5 1-1-3 3-1-3-1c1.173-3.649 3.391-5.443 6.715-7.25 4.614-1.514 9.493-1.033 14.285-.75z" fill="#1a0505"/><path d="M401 425h3c-.526 3.99-1.523 6.06-4.25 9l-1.93 2.086L396 438l-2.375 2.625c-7.227 6.539-16.542 12.84-26.625 12.375v-4l3-1.102c11.9-4.483 22.13-10.369 29.543-21.141L401 425z" fill="#051304"/><path d="M460 349c33.13-.627 33.13-.627 45 3l2.625.797c5.15 1.752 5.15 1.752 6.375 4.203-11.295-.781-22.514-2.203-33.75-3.562l-5.906-.709L460 351v-2z" fill="#477740"/><path d="M202 611h1l.445 2.543c1.674 8.974 3.935 17.656 6.573 26.397l.775 2.603.704 2.313C212 647 212 647 212 651l-3 1-2 2-4-16-.582-2.346-1.668-6.842-.53-2.138c-.868-3.628-1.423-6.941-1.22-10.674l2-1c.652-2.025.652-2.025 1-4z" fill="#211c15"/><path d="M528 626h3l2 5h6c.599 12.472.599 12.472-3 17-3.687 1.375-3.687 1.375-7 2l2-9-5-1 2-4h2l-3-9 1-1z" fill="#47843b"/><path d="M377 624l2 1v13l-2 1 .233 2.296C377 644 377 644 375.443 645.729l-2.169 1.532-2.379 1.701-2.52 1.725-2.449 1.76c-4.176 2.937-7.906 5.294-12.926 6.553v-2l-2.25 1.063c-2.961 1.01-3.871.817-6.75-.062l2.5-1.109c9.543-4.473 17.577-10.103 25.799-16.673C374 639 374 639 378 637l-1-13z" fill="#240805"/><path d="M353.891 568.414l4.359.211 2.258.082L366 569c-3.53 2.841-6.617 3.826-11 5l-2.25 1.125C351 576 351 576 348 576c1.255 2.511 2.501 2.871 5 4l-2.152.516-2.785.734-2.777.703c-2.477.813-2.477.813-3.102 3.156L342 587l-5-1c1.541-5.015 3.029-9.615 6-14l3 3 1.484-2.977C350 569 350 569 353.891 568.414z" fill="#130d08"/><path d="M334 670h1c.11 11.389-.05 22.646-1 34h3l1 7h9l-1 4-9 1-.437 2.375C336 721 336 721 335 723l-4-1h3l-1-3-2-1 .467-1.882c.74-4.327.884-8.631 1.069-13.013l.13-2.871.397-9.047.275-6.146L334 670z" fill="#2e2920"/><path d="M305 442v3l-1.758.551C292.551 448.98 292.551 448.98 285 457c-1.504 3.277-2.798 6.602-4 10h-3c-.504-7.176 1.045-11.302 5.508-16.887 4.271-4.738 8.383-6.574 14.492-8.113 3.133-1.044 3.99-.934 7 0z" fill="#051303"/><path d="M404 545c-3.005 3.502-5.008 4.575-9.562 5.188l-2.879.418c-8.817.978-17.477 1.537-26.352 1.492l-3.249-.004-10.146-.031-6.932-.014L328 552v-1l57-1v-2h-14v-1l1.833-.168 8.292-.77 2.883-.264c3.851-.361 7.646-.74 11.461-1.393 3.05-.489 5.529-.05 8.531.594z" fill="#10270d"/><path d="M548 622h1l-.032 3.073-.078 11.288-.041 4.886-.044 7.022-.031 2.207c-.001 3.736.098 5.33 2.227 8.524 1.313-1.086 1.313-1.086 1.098-3.723l-.035-3.34-.027-3.348L552 646h2l.262 2.23c.887 6.158 1.596 9.784 6.738 13.77l2 2c-1.625 2.063-1.625 2.063-4 4-2.937.125-2.937.125-6-1-5.371-5.371-6.125-8.923-6.133-16.27l-.004-3.693.012-3.85-.012-3.814.004-3.705.003-3.366c.137-3.49.58-6.854 1.129-10.302z" fill="#aba397"/><path d="M296 332c-.031 1.832-.031 1.832-1 4a53.13 53.13 0 0 1-7.5 2.688l-2.207.649C278.121 341.379 271.468 342 264 342l-1 1c-2 .041-4 .043-6 0v2h-10v-1l2.633-.586 3.492-.789 3.445-.773c3.338-.781 3.338-.781 6.172-1.766 5.658-1.886 11.444-3.332 17.203-4.875 3.922-1.058 7.782-2.115 11.617-3.461C294 331 294 331 296 332z" fill="#0d1004"/><path d="M457 299c-1.37 3.161-1.989 3.993-5 6h-3v2l-3 1-1.062 2.563c-3.65 6.476-10.485 10.905-16.937 14.438h-2v2h10v1h-11c-.625-3.062-.625-3.062 0-7 2.017-1.938 4.216-3.276 6.586-4.762 4.546-2.876 8.697-6.283 12.914-9.613l4.719-3.711 2.061-1.626c2.026-1.516 3.163-2.288 5.721-2.288z" fill="#060d02"/><path d="M586 626h2c1.733 3.466 1.461 7.426 1.719 11.25.113 2.709.113 2.709 1.281 4.75a74.6 74.6 0 0 1 .098 4.57l-.01 2.715-.025 2.84-.014 2.863L591 662h-3a233.37 233.37 0 0 1-2-36z" fill="#211b18"/><path d="M388 423l2 1c-3.736 6.088-7.999 7.35-14.746 9.238-6.737 1.577-13.046 1.944-19.941 1.949l-2.877.037-2.76.006-2.503.012C345 435 345 435 342 433l1.864.016 8.386.047 2.934.025 2.832.01 2.603.016c2.269-.108 4.208-.478 6.382-1.114l-1-2 3.875-.75c4.538-.998 8.685-2.549 12.961-4.348 1.693-.706 3.424-1.322 5.164-1.902z" fill="#152213"/><path d="M409 414v3l-2 1.563c-2.406 2.933-2.149 3.714-1.937 7.375.17 3.99.2 4.712-2.312 8.063-2.238 1.628-4.275 2.815-6.75 4l1.242-1.574c2.834-3.668 5.356-6.94 6.758-11.426-3.21 1.382-5.049 2.924-7.25 5.625l-1.578 1.914L394 434l-2-1c0-3 0-3 1-4l-3-2 2.23-1.355c5.168-3.202 9.612-6.227 13.77-10.645l3-1z" fill="#447e3c"/><path d="M349.563 243.938L352 244c3 5.75 3 5.75 3 8l3 1-3 12 2 1h-3l-2.375-5.187-1.336-2.918c-1.895-4.255-3.644-8.253-4.289-12.895 1-1 1-1 3.563-1.062z" fill="#c66e6b"/><path d="M366 217c-4.933 2.632-10.236 4.056-15.562 5.688l-3.193 1.01-3.061.939-2.795.866C339 226 339 226 336 225l1-4-8 1c3.854-2.569 7.232-2.932 11.75-3.625l2.546-.4c7.617-1.114 15.017-1.286 22.704-.975z" fill="#b6aca1"/><path d="M356 608l3 1v2l1.813.25c2.798.959 3.492 2.39 5.188 4.75l3 1 .813-1.875C371 613 371 613 374 611c-.781 8.126-.781 8.126-4 11-2.375.5-2.375.5-5 0-2.812-2-2.812-2-5-4l-3 3-.5-4.25-.281-2.391C356 612 356 612 356 608z" fill="#110202"/><path d="M413 511l-1 3c-3.674 1.591-7.891 1.126-11.828 1.098l-2.27-.004-7.152-.031-4.859-.014L374 515l1.938-.937c1.999-.897 1.999-.897 3.063-2.062 1.407-.157 2.82-.251 4.234-.316l2.663-.127 2.852-.119 2.874-.129c7.131-.301 14.239-.428 21.376-.309z" fill="#050d01"/><path d="M387 588l1 4h3c-2.57 7.066-6.584 12.989-11 19l-1-2h-2v2h-3c.813-2.437.813-2.437 2-5l3-1c.378-1.321.702-2.658 1-4a111.36 111.36 0 0 1 3-5.062c1.688-2.698 2.99-4.909 4-7.937z" fill="#2b0f0c"/><path d="M337 682h2c.12 5.778-.168 11.28-1 17h6l-1 4-5 1-1 3v-3h-3l-.062-7.187-.025-2.041c-.018-3.713.048-7.193 1.088-10.771l2-2z" fill="#0c0201"/><path d="M347 505l4.5.813 3.09.547 6.789 1.406C374.15 510.528 386.97 510.73 400 511v1l-1.912.076-8.526.362-3.01.119-2.861.127-2.65.111c-2.034-.013-2.034-.013-3.041 1.205-1.643.099-3.291.13-4.937.125l-2.715.008C368 514 368 514 366 513v-2h-9l-1-2h-4v-2h-5v-2z" fill="#140906"/><path d="M374 233h4v2h-2l.5 1.5c.707 3.534.56 6.897.5 10.5h-1l-1-7 1 15h-3l-1 2-1.645-3.43-2.168-4.445-1.08-2.262-1.064-2.168-.968-2c-1.118-2.018-1.118-2.018-4.075-3.696h5l1-2 6 13-.035-3.465-.027-4.473-.025-2.287A182.68 182.68 0 0 1 373 234l1-1z" fill="#300b0c"/><path d="M395 493l15.149-.11 5.138-.041c9.773-.097 19.113.017 28.713 2.151l-1 2-2.594-.184c-15.452-1.004-30.93-1.376-46.406-1.816l1-2z" fill="#050000"/><path d="M412.563 224.938L416 225v1l-5 1 1 3c-1.5 2.688-1.5 2.688-4 5-3.75.313-3.75.313-7 0v2l-4 2c-1.604-3.508-2.22-6.144-2-10 3.188-.812 3.188-.812 7-1 2.938 2.438 2.938 2.438 5 5l.438-3.437c.718-4.548.718-4.548 5.125-4.625z" fill="#bb6a63"/><path d="M351 494l26 1c-1 3-1 3-3 4a210.88 210.88 0 0 1-8.812.188l-2.447.037c-4.369.011-7.763-.183-11.74-2.225v-3z" fill="#140303"/><path d="M385 234c1.582 2.066 1.582 2.066 2.813 4.563l1.27 2.504L390 243l-3 1-1 3h-6l.141-1.863c.109-2.434.151-4.716-.141-7.137-1.823-2.124-1.823-2.124-4-3 3.353-2.111 5.243-2.252 9-1z" fill="#ae625f"/><path d="M612 628h1l1 22c1.618-1.618 1.223-3.456 1.316-5.691l.127-2.861.119-3.01.131-3.021L616 628h1l.125 11.5.051 3.266c.037 6.123-.37 11.375-2.176 17.234h-4l1-32z" fill="#585249"/><path d="M520 611c5.364-.583 9.702-.861 14.125 2.563 2.698 2.648 2.862 3.323 3.313 7.313L537 624h-3l-2.375-2.437c-2.726-2.661-3.922-3.245-7.625-3.562 1.375-1.5 1.375-1.5 3-3h2v-3l-10 1 1-2z" fill="#447c3b"/><path d="M402 333l2 1c-10.891 8.874-27.953 7.938-41.18 6.617-10.16-1.177-10.16-1.177-13.82-3.617l2.578.219c24.508 2.146 24.508 2.146 48.145-3.383L402 333z" fill="#190000"/><path d="M429 706l-2 7c-5.081.847-9.848 1.09-15 1v-2l-2-2 7.25-2 2.066-.578c3.39-.921 6.141-1.422 9.684-1.422z" fill="#201911"/><path d="M370 583l2 1-4 4 1 3-2.687 2.188-6.062 5.563C358 601 358 601 356 602c-.875-2.687-.875-2.687-1-6 2.625-2.562 2.625-2.562 4.313-3.777 1.943-1.34 1.943-1.34 4.313-3.848 2.031-2.031 4.033-3.727 6.375-5.375z" fill="#180703"/><path d="M316 219l-1 3c-2.431 1.026-4.738 1.859-7.25 2.625l-2.027.656c-3.544 1.128-7.058 2.08-10.723 2.719.903-3.613 1.937-4.95 4.875-7.312 5.033-2.661 10.599-2.014 16.125-1.687z" fill="#9d2a30"/><path d="M576 643c2 2 2 2 2.195 4.602l-.07 3.023-.055 3.039L578 656l-3 1-1-9-5-1v3h-4c-.187-2.375-.187-2.375 0-5 4.068-2.712 6.165-2.307 11-2z" fill="#13110d"/><path d="M391 686v7c-4.625 2.125-4.625 2.125-8 1h-2l-1-2h-6c1.281-2.563 2.156-2.593 4.813-3.5 2.297-.802 4.305-1.565 6.438-2.75 2.263-.97 3.477-.562 5.75.25z" fill="#d09b5a"/><path d="M386 661h3c1.125 6.625 1.125 6.625 0 10v6l4 2v6c-3.133 1.044-3.99.934-7 0v-5h2l-.465-1.516c-.73-3.388-.899-6.784-1.098-10.234l-.131-2.113L386 661z" fill="#090202"/><path d="M551 634h1c.843 8.357 1.122 16.602 1 25l-4 1c-.842-2.925-1.118-5.507-1.098-8.547l.01-2.559.025-2.645.014-2.691L548 637l2 4 1-7z" fill="#d3c6b6"/><path d="M444 508v1h-20v3l-11 1v-2h-9v-1c12.902-2.744 26.946-5.187 40-2z" fill="#23120c"/><path d="M362 220l-6 2 4 2-5.687 2-3.199 1.125c-2.897.814-5.13 1.052-8.113.875v-2l-7 1c3.924-2.616 7.967-3.769 12.438-5.187l2.604-.865 2.518-.803 2.291-.739c2.39-.451 3.863-.164 6.151.594z" fill="#2a1f1f"/><path d="M549 624h6l-2 18-2-1-2 4-.562-7.125-.17-2.016c-.304-4.132-.12-7.806.732-11.859z" fill="#c8beb1"/><path d="M432 493c7.25-.283 13.91.49 21 2l1 3 6 1v1c-6.79.196-13.28-.566-20-1.5l-3.215-.434L429 497v-1h14l-11-2v-1z" fill="#250a0a"/><path d="M356 479l25 1c-3 3-3 3-5.237 3.372l-2.58-.009-2.814-.002-2.932-.049-2.943.01c-7.227-.055-7.227-.055-9.494-2.322l1-2z" fill="#070400"/><path d="M386 230a33.73 33.73 0 0 1 4.25 6.25l1.023 1.777c1.678 2.939 3.25 5.928 4.727 8.973l-3 1-1.652-3.027c-3.786-7.256-3.786-7.256-9.949-12.125-2.707-.321-2.707-.321-6.398.152 4.007-2.671 6.131-3.702 11-3z" fill="#2e0809"/><path d="M353.695 568.805l4.43.07 2.285.027L366 569c-3.571 2.851-6.559 3.835-11 5l-9 3c2.409-7.916 2.409-7.916 7.695-8.195z" fill="#d64d4b"/><path d="M558 628c1.585 3.169.868 6.489.625 9.938l-.133 2.209c-.207 3.142-.492 5.853-1.492 8.854h-2c-2.528-3.792-2.224-6.809-2.125-11.187l.027-2.271L553 630l3 1 2-3z" fill="#312d27"/><path d="M348 335l4.438-.062 2.496-.035C357 335 357 335 358 336l6.879.316 2.081.063 6.603.183 4.467.131L389 337v1c-4.764 1.213-9.43 1.191-14.312 1.188l-2.653.002c-8.126-.065-16.009-.934-24.034-2.189v-2z" fill="#8a272f"/><path d="M243 281c1.301 4.321.724 7.581 0 12l-1 1c-.16 2.592-.259 5.16-.316 7.754l-.063 2.35-.183 7.459-.131 5.045L241 329h-1c-.834-5.068-1.16-9.985-1.125-15.125l.012-2.247c.106-10.631.867-20.444 4.113-30.628z" fill="#9b2b31"/><path d="M563 620c5.987-.599 5.987-.599 8.766 1.043 2.169 1.796 3.965 3.418 5.234 5.957l.063 5.125-.027 2.758L577 637h-3l-.367-1.863-.508-2.449-.492-2.426c-.578-2.515-.578-2.515-2.633-5.262l1-2-1.75-.375c-2.273-.631-4.175-1.514-6.25-2.625z" fill="#282017"/><path d="M390 666c2.475 3.712 3.188 7.138 4.188 11.438l.576 2.314.529 2.244.485 2.037c.252 2.231-.116 3.837-.778 5.967l-3-1-1 4c-.042-2.333-.041-4.667 0-7l1-1c.333-2.958.333-2.958 0-6l-3-2c-.856-3.556-1.393-5.979-.062-9.437L390 666z" fill="#302920"/><path d="M457 299c-1.37 3.161-1.989 3.993-5 6h-3v2l-3 1-3 6c-3.445 2.296-5.938 2.54-10 3 17.556-18 17.556-18 24-18z" fill="#1e0704"/><path d="M362 648l2 1c-.62 3.032-1.131 5.309-3.621 7.289C355.688 659 355.688 659 353 659v-2l-2.25 1.063c-2.961 1.01-3.871.817-6.75-.062l2.922-1.426 3.828-1.887 1.922-.936c3.36-1.662 6.427-3.371 9.328-5.752z" fill="#2b0b08"/><path d="M387.063 490.938L390 491v2c-24.828 4.345-24.828 4.345-36 0v-1l2.646.016 9.689.039 4.199.021 6.024.022 3.666.016c3.351-.137 3.381-1.105 6.838-1.176z" fill="#b36a68"/><path d="M279 338c-2.338 2.493-4.062 3.914-7.523 4.23l-5.367-.187L264 342l-1 1h-6v2h-10v-1l2.633-.586 3.492-.789 3.445-.773c3.217-.799 6.298-1.773 9.43-2.852 4.613-1.426 8.229-2.491 13-1z" fill="#260304"/><path d="M239 294h1l-.016 2.427-.047 11.01-.025 3.818c-.017 6.673.174 13.132 1.088 19.744l-2-1c-1.957-6.064-2.308-11.662-2.25-18l-.023-2.578c.017-5.468.742-10.171 2.273-15.422z" fill="#2e0608"/><path d="M404 241c4.379.505 6.817 3.178 10 6l-2 1-1 3c-2.375 1.25-2.375 1.25-5 2-3-1-3-1-4.187-3.062L401 248l5 1-1-2.312C404 244 404 244 404 241z" fill="#210c0c"/><path d="M428 424c5.304.457 9.445 1.001 14 4 .875 2.188.875 2.188 1 4-5.455-.568-9.911-1.946-15-4v-4z" fill="#061605"/><path d="M551 299c2.825 4.237 2.91 8.027 2 13-1.742 2.72-3.369 4.001-6 6h-2l2-6h2l-.07-2.336-.055-3.039-.07-3.023C549 301 549 301 551 299z" fill="#a42932"/><path d="M384 251h7l-1 3h10v1l-5.375.063-3.023.035C389 255 389 255 387 254l-.25 2.375C386 259 386 259 384.125 260.313 382 261 382 261 379 261l-1-7 1 4c2.032-.64 2.032-.64 4-2 .812-2.555.812-2.555 1-5z" fill="#3b0c0f"/><path d="M374 235h1l.402 2.555.535 3.32.527 3.305c.391 2.759.391 2.759 1.535 4.82l.563 6.125.254 3.32L379 261h-5l-1-6h3l-1-3.812c-1.225-5.415-1.186-10.662-1-16.187z" fill="#210405"/><path d="M613 628c3 2 3 2 3.388 3.939l.01 2.342.012 2.551-.035 2.668.035 2.668-.012 2.551-.01 2.342C616 649 616 649 613 651v-23z" fill="#120f0a"/><path d="M589 606l6.188.438 3.48.246c2.848.27 5.544.692 8.332 1.316v2c-5.849 1.019-11.509 1.118-17.437 1.063l-2.795-.014L580 611v-1l2.809-.148 3.629-.227 3.621-.211L593 609l1-2h-5v-1z" fill="#8d6041"/><path d="M626 629h1l.148 1.934.227 2.504.211 2.496L628 638l2 1v13h-1l-1-3-1 8h-1v-28z"/><path d="M271 537l5.25.875 2.953.492c2.57.581 4.518 1.341 6.797 2.633h-4l1 3c-5.273-.445-10.018-1.084-15-3l3-2v-2z" fill="#0a1d08"/><path d="M493.195 282.902l2.144.004 6.786.031 4.598.014L518 283v2l-3.375-.035c-10.254-.072-20.401.255-30.625 1.035v-2c2.958-1.479 5.955-1.122 9.195-1.098z" fill="#8e262c"/><path d="M383 698c-.234 1.855-.234 1.855-1 4-3.701 2.547-7.574 4.116-12.062 3.75L368 705c1.004-2.739 1.628-3.804 4.25-5.187 3.548-1.048 7.038-1.812 10.75-1.812z" fill="#1a0803"/><path d="M301 464l3 1-2 1.875c-2.795 4.367-2.353 8.077-2 13.125l3 1c-3 1-3 1-5.187.063L296 480c-.767-9.73-.767-9.73 1.113-12.844 1.387-1.344 1.387-1.344 3.887-3.156z" fill="#0e0604"/><path d="M385.887 479.805l2.842.02 2.959.051 2.994.027L402 480v1c-13.465 2.407-26.327 3.393-40 3v-1l3.395-.148 4.418-.227 2.236-.094c5.241-.285 8.678-2.789 13.838-2.727z" fill="#311614"/><path d="M296 249h1l-1 26-2-1-.125-10.812-.051-3.104-.02-2.979-.032-2.745C294 252 294 252 296 249z" fill="#0a0201"/><path d="M232 296h1l-1 22-2 1c-1.129-3.311-2.213-6.59-3-10l3-2-2-4 4-2v-5z"/><path d="M309 312c3.596 3.494 6.835 7.111 10 11h-4v2l-6 1 3-3-2-2c-.562-1.937-.562-1.937-1-4l-1-3 1-2z" fill="#21100f"/><path d="M297 238h1c1.529 9.565.347 18.506-1 28h-1v-16l-2 2c.514-4.969 1.234-9.29 3-14z" fill="#362120"/><path d="M578 646h1l.125 6.25.07 3.516c-.186 3.075-.46 4.727-2.195 7.234-2.125.75-2.125.75-4 1l-1-3h-7v-1l3.188-.312c4.937-.814 4.937-.814 8.813-3.687.725-3.329.93-6.6 1-10z" fill="#2e2924"/><path d="M380 642l1.625 6.25.914 3.516C383 655 383 655 382.25 657.344c-1.718 2.277-3.578 2.813-6.25 3.656v-3l5-1c-.427-3.094-.93-6.059-2-9-2.47-1.676-2.47-1.676-5-2 3.75-4 3.75-4 6-4z" fill="#c69960"/><path d="M381 658l2 1-1 1 3 2-4.187 2.5-2.355 1.406c-2.698 1.201-4.538 1.301-7.457 1.094 2.37-5.018 5.124-6.695 10-9z" fill="#110501"/><path d="M347 505l27 5v1h-17l-1-2h-4v-2h-5v-2z" fill="#210c0a"/><path d="M217 524c2.919 2.919 4.719 4.866 6.75 8.25l1.297 2.141L226 536h-8l-1-12z" fill="#d5cbaf"/><path d="M395 271l1 3-4.312 2-2.426 1.125C387 278 387 278 384 278c1.452-5.565 1.452-5.565 3.813-7.437 2.701-.694 4.526-.302 7.188.438z" fill="#2a1111"/><path d="M418 231c2.408 2.408 3.008 4.422 4.125 7.625l1.07 3.039L424 244l-5 1-3-7h3l-1-7z" fill="#a75f5f"/><path d="M373 611c1.224 3.671.617 4.597-1 8l-2 3c-2.437.438-2.437.438-5 0-1.812-2-1.812-2-3-4l4 1v-2h3l.875-1.875C371 613 371 613 373 611z" fill="#2f0907"/><path d="M320 482c4.565.543 7.973 1.795 12 4v3c-4.618.322-7.339-.071-11-3-.812-2.187-.812-2.187-1-4z" fill="#140806"/><path d="M386 681l1 5-5 3c-2-1-2-1-3-3l-1.75 1.063c-2.648 1.103-3.582.739-6.25-.062l6.375-3 3.586-1.687C384 681 384 681 386 681z" fill="#310e09"/><path d="M361 669v2l-2 1 3 3-10 2-2-4 4.375-2 2.461-1.125C359 669 359 669 361 669z" fill="#2b140b"/><path d="M586 626h2c1.351 2.702 1.132 4.86 1.125 7.875l.008 3.18c-.113 2.502-.408 4.563-1.133 6.945h-2v-18z" fill="#17120e"/><path d="M189 416l2 1-1 2 2 1c.75 2.375.75 2.375 1 5l-2 3-2-4-2 1c-1-3-1-3-.125-5.062L188 418l1-2zm-1 12h3l-1 6-3-3 1-3z"/><path d="M349.563 243.938L352 244l3 7h-4l-2 4c-1.417-3.307-2.504-6.426-3-10 1-1 1-1 3.563-1.062z" fill="#bc6967"/><path d="M534 667l2 3c-1.878 1.878-5.039 1.391-7.562 1.563l-3.629.254L522 672l-1-3c5.02-2.51 7.261-3.23 13-2z" fill="#010000"/><path d="M542 588c2.867.573 3.861.861 6 3h-2l-1 2-2 4h-5v-5l3-1 1-3z"/><path d="M355 251h5l-.254 1.758c-.608 4.665-.818 8.597.254 13.242l-5 1 .438-4.75.246-2.672c.316-2.578.316-2.578.977-4.781L357 253l-2-2z" fill="#b66866"/><path d="M414 238l3 1 2 7 2 1-9 3v-2h2v-10z" fill="#250707"/><path d="M484 699l1 7-2-2v-4l-2.09.656c-6.21 1.84-11.44 2.662-17.91 2.344v-1l8.25-2.062 2.355-.604 2.285-.557 2.095-.524c2.265-.285 3.851.066 6.015.746z" fill="#77513a"/><path d="M394 699l.125 6.813.07 3.832C394 713 394 713 392 716l1-13h-2v-2l-3.25 1.063c-3.537.884-4.498.966-7.75-.062l4.188-2.062 2.355-1.16c2.888-.914 4.577-.591 7.457.223z" fill="#b34041"/><path d="M586.188 676.875l2.271.027L594 677v1h-9v3l-3.812-.187c-3.357-.049-3.357-.049-6.187 1.688l-1 1.5v-2h-2l1-3v2h2v-2c3.792-2.528 6.809-2.224 11.188-2.125z"/><path d="M332 487l10 3-3 1 1 3c-4.565-.543-7.973-1.795-12-4l4-1v-2z" fill="#290f0e"/><path d="M428 275l-3 1 5 1c-3.534 2.12-6.944 2.532-11 3l-1-3h-5v-1l5.25-1.062 2.953-.598c2.665-.324 4.286-.195 6.797.66z" fill="#290506"/><path d="M358.875 216.938l2.086.014L366 217c-3.31 1.848-6.572 2.745-10.25 3.625l-3.266.789L350 222v-3h-5v-1c4.655-.921 9.147-1.122 13.875-1.062z" fill="#afa89c"/><path d="M333 595l4 1c-.875 7.875-.875 7.875-2 9h-5l3-10z" fill="#15140e"/><path d="M550 295c2.949 2.345 3.93 3.423 4.391 7.234l-.141 3.516-.109 3.547L554 312h-1l-.184-2.117-.254-2.758-.246-2.742c-.186-2.394-.186-2.394-1.316-4.383-1.74 1.74-1.372 4.194-1.562 6.563l-.254 3.066L549 312h-1l-.184-2.082-.254-2.73-.246-2.707c-.251-2.608-.251-2.608-1.316-5.48l4-2v-2z" fill="#892027"/><path d="M390 244c2.5 2.25 2.5 2.25 5 5v4h-4v-2h-6c1.293-2.884 2.659-4.872 5-7z" fill="#b46764"/><path d="M374 233h4v2h-2l.5 1.5c.707 3.534.56 6.897.5 10.5h-1l-1-7v14l-2-1-.062-9.437-.025-2.721-.01-2.588-.016-2.396C373 234 373 234 374 233z" fill="#561c1f"/><path d="M589 625h7c2 2 2 2 2.125 4.625L598 632l3 1-4 3c-3-5.625-3-5.625-3-9h-5v-2z" fill="#16110d"/><path d="M332 223v1l-5 1 1 3 2 1-3 2c-2.928-.976-4.614-2.108-7-4 2-3 2-3 3.75-3.687 2.769-.385 5.458-.376 8.25-.312z" fill="#d0c3b6"/><path d="M354 709h-2l1 2c2.025.652 2.025.652 4 1l-3.812 1.5-2.145.844C349 715 349 715 346 715v-3l-4-2c8.036-2.277 8.036-2.277 12-1z" fill="#2f140b"/><path d="M339 682l3 1-.219 2.738-.281 3.574-.281 3.551L341 699h-3l1-17z" fill="#b44546"/><path d="M411 330l2 1v3l-5.312 2.5-2.988 1.406C402 339 402 339 399 339c1.37-3.161 1.989-3.993 5-6l6-2 1-1z" fill="#060801"/><path d="M551 295l4 1c1.063 15.152 1.063 15.152-1.418 19.465-3.388 2.954-4.973 3.535-9.582 3.535l1-3v2l1.461-1.312 1.914-1.687 1.898-1.687C552 312 552 312 554 312l-.375-6.25-.211-3.516c-.377-2.941-.891-4.734-2.414-7.234z" fill="#1e0304"/><path d="M526 282l5.375 1.375 3.023.773C537 285 537 285 539 287l-3.25-.062c-3.482-.109-3.482-.109-5.656.625-2.696.563-4.667.099-7.344-.5l-2.703-.59L518 286v-1h9l-1-3z" fill="#8d2229"/><path d="M384 287l2 1-2 3h-3v2l-2.375.313c-2.955.463-2.955.463-4.625 3.688l-5-1c4.394-3.954 9.495-6.866 15-9z" fill="#2b2623"/><path d="M298 278h1l2 12h-2l1 10c-2.531-5.063-4.336-9.282-4-15h1l1-7z" fill="#2a1511"/><path d="M360 240l5 1c0 4.277-.706 5.559-3 9l2 1-4-1-.562-4.437-.316-2.496L359 241l1-1z" fill="#b46462"/><path d="M386 661h3c1.125 6.625 1.125 6.625 0 10l-.062 5.188.027 2.73L389 681l-3-1h2l-.465-1.516c-.73-3.388-.899-6.784-1.098-10.234l-.131-2.113L386 661z" fill="#190504"/><path d="M179 537c1.938.313 1.938.313 4 1l1 3h-2l-.812 1.938C180 545 180 545 177 546l-1-4h2l1-5z"/><path d="M366 282l2 1c-2.263 3.395-3.154 3.951-7 5-3.312-.375-3.312-.375-6-1v2h-7l1-2 5.188-.937c4.459-.718 7.816-1.911 11.813-4.062z" fill="#100504"/><path d="M500 277c5.889-.212 10.833.447 16.5 2l2.203.578L524 281c-3.165.975-5.714 1.023-9 .688l-2.562-.238c-2.488-.458-4.215-1.278-6.437-2.449-1.991-.383-3.991-.726-6-1v-1z" fill="#771e22"/><path d="M351 656l3 1c-1 3-1 3-3.875 4.688C347 663 347 663 344 663l-2-4 1.715-.402 2.223-.535 2.215-.527C350 657.161 350 657.161 351 656z" fill="#110300"/><path d="M564 609l8 2-1 4 3 1c-7.508-.492-7.508-.492-10-3.062L563 611l1-2z" fill="#170f0d"/><path d="M498 352l-1 3-20-2v-1h11v-1c4.078-.927 6.422-1.34 10 1z" fill="#427b38"/><path d="M420 226l4.375 2.813 2.461 1.582C429 232 429 232 431 235h-3v-2h-3l-1 4-2-4.375-1.125-2.461C420 228 420 228 420 226z" fill="#9e2832"/><path d="M386 728l5 2c-1.372 2.954-2.989 5.44-5 8v-3h-3l3-7z" fill="#1d1307"/><path d="M617 644h1l.25 7.75.102 2.211c.067 3.711-.008 5.611-2.367 8.555L614 664l-3-4h4l2-16z" fill="#b8b1a7"/><path d="M478 495l4.875-.187 2.742-.105L488 495l2 3c-7.429 2.429-7.429 2.429-11 1l2-2-3-2z" fill="#250d0c"/><path d="M446 273c-2 2-2 2-5.258 2.195l-3.867-.07-3.883-.055L430 275v2h-6l1-2c6.86-2.017 13.902-2.277 21-2z" fill="#030101"/><path d="M398 249c2.962.613 4.381 1.254 7 3-3.527 2.351-5.029 2.214-9.187 2.125l-3.293-.055L390 254l1-2h6l1-3z" fill="#110202"/><path d="M231 654h-2v4 1h-6l-2-2 1-3c3.378-.845 5.675-1.108 9 0z" fill="#151c0e"/><path d="M572.188 642.875L576 643v1l-6 1 3 2h-4v3h-4c-.187-2.375-.187-2.375 0-5 3.089-2.059 3.709-2.239 7.188-2.125z" fill="#27231b"/><path d="M256 247l2 2-9 9-2-2-2-1 1-2 2.313.313L251 253c1.735-2.392 1.735-2.392 3-5l2-1z" fill="#020001"/><path d="M394 226c2 1 2 1 3 3h-2l2 8h-2l-1 2c-1.591-4.177-2.213-7.532-2-12l2-1z" fill="#360b0d"/><path d="M562 660l10 1 1 3-4.875.063-2.742.035C563 664 563 664 561 663l1-3z" fill="#16100f"/><path d="M539.75 603.875l2.422.055L544 604v2c-4.504 1.757-8.176 2.193-13 2v-2c3.062-1.784 5.221-2.229 8.75-2.125z" fill="#a4a19b"/><path d="M402 333l2 1c-4.736 3.859-8.696 5.272-14.812 5.125l-2.957-.055L384 339v-1l2.668-.586 3.52-.789 3.48-.773c3.293-.757 3.293-.757 6.133-2.016L402 333z" fill="#33080a"/><path d="M348 251l2 4 1.625 3.125C353 261 353 261 353 263h-2l-1 2-2-4.375-1.125-2.461C346 256 346 256 346 254h2v-3z" fill="#380e0f"/><path d="M343 226v2l2 1c-4.504 1.757-8.176 2.193-13 2 3.596-3.981 5.698-5 11-5z" fill="#170302"/><path d="M375 743v2c-4.132 3.099-4.132 3.099-7.187 2.75L364 746v-2c3.734-.879 7.168-1.089 11-1z" fill="#c34b4b"/><path d="M541 655l1 3-4.375.063-2.461.035C533 658 533 658 531 657v-2c3.283-1.642 6.425-.519 10 0z" fill="#b3b0a7"/><path d="M206 411c1.253 2.951 1.01 3.974-.215 7.016l-1.723 3.234-1.715 3.266L201 427h-1c.403-6.316 2.712-10.65 6-16z" fill="#43793a"/><path d="M477 350h17l-2 3-6.937-.375-3.902-.211L478 352l-1-2z" fill="#4e8f44"/><path d="M456 304c-5.75 5-5.75 5-8 5v2l-4 2 1-5 4-1v-2c3.625-2.125 3.625-2.125 7-1z" fill="#061003"/><path d="M347 241h7l2 6h-2l-1 2-1-5h-5v-3z" fill="#350a0b"/><path d="M295 469h1l1 11 6 2-1 3c-4 0-4 0-5.738-1.609-1.613-3.057-1.561-5.203-1.449-8.641l.082-3.266L295 469z" fill="#0c2009"/><path d="M472 295v2l-3 2v4l3 1 1 3c-2.437-.75-2.437-.75-5-2-.812-2.125-.812-2.125-1-4h-2c.25-1.875.25-1.875 1-4 2.147-1.385 3.439-2 6-2z" fill="#60191c"/><path d="M361 257l3 1 2 10-4 1-1 2v-3h2l-2-11z" fill="#992f39"/><path d="M380 239l4 1c.625 2.375.625 2.375 1 5l-2 2h-3v-8z" fill="#2a0e0d"/><path d="M387 724l1 2c-.777 1.727-.777 1.727-1.937 3.625L384 733l-5-5c2.666-1.777 5.028-2.875 8-4z" fill="#d1a065"/><path d="M568 665v3l-4.312.125-2.426.07C559 668 559 668 556 666c3.996-2.83 7.427-1.762 12-1z" fill="#d0c5b9"/><path d="M363 595c.75 1.75.75 1.75 1 4-1.812 2.25-1.812 2.25-4 4h-2l1 4-3-2c.559-3.243 1.413-4.931 4-7h2l1-3z" fill="#bd4342"/><path d="M370 583l2 1-4 4 1 3-4 2-1-3-2-1 8-6z" fill="#261307"/><path d="M328 324v4h-9l1-3c2.709-1.354 5.009-1.065 8-1z" fill="#a42a36"/><path d="M457 299c-1.37 3.161-1.989 3.993-5 6h-3v2l-6 2c9.429-10 9.429-10 14-10z" fill="#2d0506"/><path d="M387 242l3 1-1 4h-2v2l3 1-8 1 1-4h3l1-5z" fill="#d0746f"/><path d="M385 234l1 4c-7.75-.75-7.75-.75-10-3 3.351-2.11 5.221-2.05 9-1z" fill="#b76862"/><path d="M344 219h6v3c-3.135 1.858-5.375 2.201-9 2v-2h2l1-3z" fill="#cabeb4"/><path d="M339 668h1v6l9-2 1 2-7 1v2h-4v-9z" fill="#b08958"/><path d="M265 664c2 3 2 3 3 6l2-1v9l-3-1c-.73-1.926-.73-1.926-1.187-4.312l-.48-2.363C265 668 265 668 265 664z" fill="#010701"/><path d="M603 623h5l-2 3-1 6h-3l1-9z" fill="#18120c"/><path d="M427 583l1 3c-1.398 1.973-1.398 1.973-3.375 4.063-2.63 2.748-2.63 2.748-4.625 5.938l-4-1 1.898-1.863 2.477-2.449 2.461-2.426C425.126 586 425.126 586 427 583z" fill="#c6bea4"/><path d="M376 494h8l-4 2 7 1v1l-13 1 2-1v-4z" fill="#240c0c"/><path d="M438 421l3.438 2.875 1.934 1.617C445 427 445 427 446 429l-10-3v-3h2v-2z" fill="#487943"/><path d="M293 280h2l1.563 5.75.879 3.234c.53 2.859.542 4.332-.441 7.016-2.29-3.435-2.178-4.985-2-9h-2v-7z" fill="#8e292e"/><path d="M370 281l2 3-5 1-1-2-2.75 1.563c-3.414 1.51-3.936 1.525-7.25.438l5.313-2.562 2.988-1.441C367 280 367 280 370 281z" fill="#2c0c0c"/><path d="M370 252c1.945 2.918 2.453 4.625 3 8-3 2-3 2-6 2v-4l2-1c.656-2.527.656-2.527 1-5z" fill="#bb6c6a"/><path d="M412.563 224.938L416 225v1l-5 1 1 3-4 4-3-1h2l.438-3.437c.718-4.548.718-4.548 5.125-4.625z" fill="#935550"/><path d="M327 210c3 0 3 0 4.688 1.5L333 213l-1-3 10 2v1l-13 2-2-5z"/><path d="M250 672h6l-4 2-2-2zm1 2l4 2-2 1-2 6c-1.125-1.687-1.125-1.687-2-4 .875-2.75.875-2.75 2-5z" fill="#1d2115"/><path d="M563 620c3.188-.312 3.188-.312 7 0 2.938 2.5 2.938 2.5 5 5h-2l-1 3-2-3 1-2-1.75-.375c-2.273-.631-4.175-1.514-6.25-2.625z" fill="#302a22"/><path d="M209 520l3 1c.953 4.763 1.083 9.167 1 14h-1l-1.5-4.687-.844-2.637c-.655-2.67-.775-4.94-.656-7.676z" fill="#b3ad94"/><path d="M287 337c-2.463 2.463-4.274 2.768-7.625 3.625l-3.039.789L274 342c3.393-4.726 3.393-4.726 5.938-5.875 2.504-.152 4.637.269 7.063.875z" fill="#051103"/><path d="M378 254l1 7h-5l-1-6c3-1 3-1 5-1z" fill="#0e0100"/><path d="M337 502c3.735.498 5.812.875 9 3l-3.875 1.063-2.18.598C338 507 338 507 336 506l1-4z" fill="#17100a"/><path d="M353 310v3l-4.25 2.063-2.391 1.16c-2.619.863-3.808.708-6.359-.223l5.375-3 3.023-1.687C351 310 351 310 353 310z" fill="#97262f"/><path d="M418 277l1 3-12 1c3.769-3.769 5.877-4.138 11-4z" fill="#080101"/><path d="M463 268h29v1h-29v-1z"/><path d="M373 257l.375 1.938L374 261l2 1c-3.73 2.034-5.669 3-10 3v-3l2.938-.812L372 260l1-3z" fill="#260908"/><path d="M279 338c-4.5 4-4.5 4-9 4v-4c3.325-1.108 5.622-.845 9 0z" fill="#140303"/><path d="M416 327c-.75 1.938-.75 1.938-2 4-1.812.688-1.812.688-4 1l-2.75.563L405 333c7.2-6 7.2-6 11-6zm-4 4l6 1v1h-7l1-2z" fill="#291009"/><path d="M386 258v3c-3.83 1.802-6.781 2.196-11 2l-1 2-2-2c3.51-1.965 7.132-2.945 11-4l3-1z" fill="#95282f"/><path d="M377 228l8 1v1l-2.117.41c-5.239.989-5.239.989-8.992 4.348-.622 2.136-.622 2.136-.891 5.242h-1v-8l5-1v-3z" fill="#92232c"/><path d="M316 218v1l-2.344.078c-6.924.377-11.692 1.366-17.656 4.922v-3c6.542-3.651 12.639-3.299 20-3z" fill="#2e0304"/><path d="M341 711c3.188-.312 3.188-.312 6 0l-1 4-8 1c1.125-2.5 1.125-2.5 3-5z" fill="#140300"/><path d="M396 701h2c.372 7.566.372 7.566-1.512 9.762L395 712l-.062-4.937-.035-2.777C395 702 395 702 396 701z" fill="#070202"/><path d="M379 685l2 3-6 3-3-1-1-2 8-3z" fill="#0d0300"/><path d="M377 605l6 1-4 5v-2h-2v2h-3c1.875-4.875 1.875-4.875 3-6z" fill="#2a1010"/><path d="M271 596l7 1v3c-5.75.125-5.75.125-8-1l1-3z" fill="#080305"/><path d="M375 574l5 5-3.875 2-2.18 1.125C372 583 372 583 370 583v-2h2v-2h4l-1-5z" fill="#cda165"/><path d="M375 448l-3 1v4h-5v-4c5.75-2.125 5.75-2.125 8-1z" fill="#091d07"/><path d="M298 442v1l-1.863.551-2.449.762-2.426.738c-2.376.997-3.508 2.113-5.262 3.949h-2v-3h2v-2c4.177-1.591 7.532-2.213 12-2z" fill="#447d3b"/><path d="M495 351h7l2 4h-7l-2-2v-2z" fill="#4a8642"/><path d="M396 287v2h-3v2c-6.964 3.348-6.964 3.348-11 2l5.875-3 3.305-1.687C394 287 394 287 396 287z" fill="#8f262d"/><path d="M412 238h2v9c-4.5-2.25-4.5-2.25-6-6h2l1 2 1-5z" fill="#ab6261"/><path d="M348 224l-2 3 2 1h-5v-2l-7 1c3.474-2.316 7.954-5.023 12-3z" fill="#2d221d"/><path d="M386 695l-1 4 3 1-6 2 1-4-6 1c2.566-2.566 5.315-4 9-4z" fill="#3d1f11"/><path d="M383 636h1l1 10h-3l-1 3-1-7 1 2c1.3-2.601 1.565-5.14 2-8z" fill="#251c14"/><path d="M564.313 620.813c2.765.193 4.328.789 6.688 2.188v2h-9l-1-3c1-1 1-1 3.313-1.187z" fill="#18140e"/><path d="M393 283l2 1-1 4-5 1v-2l-3-1 7-3z" fill="#251c19"/><path d="M286 238v2c-2.955 2.744-3.775 3-8 3v2l-4-1 4.875-3 2.742-1.687C284 238 284 238 286 238z" fill="#8e2529"/><path d="M322 228c3 2 3 2 4 4-3.228 2.152-4.284 2.201-8 2v-2l2-1v-2l2-1z" fill="#bdb4a5"/><path d="M384 599l2 1c-.625 2.375-.625 2.375-2 5-3.125 1.313-3.125 1.313-6 2 1.443-3.366 3.333-5.51 6-8z" fill="#0d0603"/><path d="M217 361l2 2-3 2 3 3-6 1-1-4 5-4z"/><path d="M440 315v2c-1.75 1.289-1.75 1.289-4 2.625l-2.25 1.352L432 322c.313-2.375.313-2.375 1-5 3-2 3-2 7-2z" fill="#040e02"/><path d="M334 227l2 1c-4.308 4.923-4.308 4.923-7.812 5.313L326 233c1-3 1-3 4.438-4.75L334 227z" fill="#2a231f"/><path d="M408 205c2 3 2 3 3 6l3 2-1 2-2-1-4-1c0-3.113.174-5.108 1-8z"/><path d="M290 714h13l1 3c-9.41-.964-9.41-.964-14-2v-1z" fill="#b3a992"/><path d="M364 647l4 1c-.812 1.938-.812 1.938-2 4l-3 1-2-2h2l1-4z" fill="#110702"/><path d="M160 640h1v13l-2-1-.062-5.437-.035-3.059C159 641 159 641 160 640z" fill="#5b08c8"/><path d="M350 569h16l-4 3c-1.75-.25-1.75-.25-4-1l-8-1v-1z" fill="#7f3534"/><path d="M266 536c2.688.313 2.688.313 5 1l1 3-9-1 3-3z" fill="#000800"/><path d="M507 325l16 2v1c-5.485 0-10.593-.039-16-1v-2z"/><path d="M342 310l2 1-4 6h-2l-1-4 5-3z" fill="#231515"/><path d="M475 291l-1 3-6 1c.313-1.937.313-1.937 1-4 3-1 3-1 6 0z" fill="#100100"/><path d="M527.688 269.375L530 270l1 3-3 2-6-4c3-2 3-2 5.688-1.625z"/><path d="M413 251l-1 2c-2.063.391-4.094.507-6.187.656L404 254l-1 2-3-2 5.375-2.062 3.023-1.16C411 250 411 250 413 251z" fill="#96292f"/><path d="M393 236c1.801 2.702 3.002 4.931 4 8l-1 3-5-7 2-1v-3z" fill="#852834"/><path d="M348 223l7 1-1 2c-2.649.594-5.292.742-8 1l2-4z" fill="#150203"/><path d="M383 698l-1 4-6 1 1-4c2.076-.553 3.844-1 6-1z" fill="#0c0000"/><path d="M249 686l2 3c-1.062 2.438-1.062 2.438-3 5-3.687.813-3.687.813-7 1l1.813-.687c3.315-1.989 4.501-4.94 6.188-8.312z" fill="#cec1a4"/><path d="M586 644h1l1 18c-3-3-3-3-3.074-6.574l.387-4.113.186-2.127L586 644z" fill="#9c948e"/><path d="M373 617h2l1 7-1-3h-4v2l-4-1h3l.938-1.937C372 618 372 618 373 617z" fill="#b0403f"/><path d="M276 596l10 1v1l-7 1v2l3 1-6-1 2-1v-3l-2-1z" fill="#48423a"/><path d="M350 510l6.875-.062 3.867-.035C364 510 364 510 366 511v2l-6.312-.375-3.551-.211C353 512 353 512 350 510z" fill="#10250e"/><path d="M563 316v5l-2 1v-3h-2v2l-4-1c4.625-4 4.625-4 8-4z"/><path d="M367 296l2 1-2 2 1 2h-5v2l-4-2 3.875-2.562 2.18-1.441L367 296z" fill="#26211c"/><path d="M406 247l1 3c2.015.733 2.015.733 4 1-4.625 2.125-4.625 2.125-8 1-1.187-2.062-1.187-2.062-2-4l5 1v-2z" fill="#3e1515"/><path d="M418 239l5 1 1 4-5 1-1-6z" fill="#b06363"/><path d="M395 237h2c2.429 7.429 2.429 7.429 1 11l-2-1c-.414-2.285-.414-2.285-.625-5.062l-.227-2.785L395 237z" fill="#290606"/><path d="M396 225c2.875-.187 2.875-.187 6 0l2 3c-3.069 1.534-5.701.55-9 0l1-3z" fill="#2a0506"/><path d="M341 641c1.461 2.647 2 3.894 2 7l-3 3-2 3c.549-4.571 1.417-8.674 3-13z" fill="#372f22"/><path d="M348 633c1.188 3.429.802 5.378-.437 8.75l-.871 2.422L346 646h-1c-.143-7.429-.143-7.429 1-11h2v-2z" fill="#2b0808"/><path d="M549 624l3 2-1 5-2 1v-8zm3 0h3l-1 2-2-2z" fill="#d2c6b7"/><path d="M349 570l1 2-1 2 6-1c-1 2-1 2-2.848 2.633l-2.215.492-2.223.508L346 577c1.875-5.875 1.875-5.875 3-7z" fill="#83322f"/><path d="M432 542c2.429 3.644 2.162 5.712 2 10h-3l1-10z" fill="#060102"/><path d="M410 544l-2 3-7 1 2-2-1-2c5.75-1.125 5.75-1.125 8 0z" fill="#000b00"/><path d="M290 334l-2 3c-2.383.293-2.383.293-5.125.188l-2.758-.082L278 337c2.157-2.157 3.118-2.483 6-3.187l2.125-.543C288 333 288 333 290 334z" fill="#200303"/><path d="M459.188 304.375L461 305l-2.375 1.25c-2.684 1.789-3.506 2.8-4.625 5.75l-3-1c4.053-7.334 4.053-7.334 8.188-6.625z" fill="#4e9042"/><path d="M243 281c1.235 4.182 1.047 7.784 0 12-1.562 2-1.562 2-3 3 .778-5.055 1.859-10.017 3-15z" fill="#8a252a"/><path d="M529 288c2.867.573 3.861.861 6 3l-6-1v-2zm-3 3c2.375-.187 2.375-.187 5 0l2 3-7-2v-1z" fill="#2d0607"/><path d="M351 250l7 2-3 1v2h-4l-1-4 1-1z" fill="#cd7472"/><path d="M415 241l3 1 1 4 2 1h-6v-6z" fill="#0b0101"/><path d="M324 236l3 1-2 8c-1.562-1.75-1.562-1.75-3-4 .248-2.17.442-3.442 2-5z" fill="#99272b"/><path d="M348 640l1 3h-2l-.312 3.375L346 650l-3 2 1.375-4.875.773-2.742C346 642 346 642 348 640z" fill="#b64341"/><path d="M509 601h2l1 3 3 2-2 4c-2-1-2-1-2.633-2.848l-.492-2.215-.508-2.223L509 601z" fill="#030201"/><path d="M348 507h4v2l4-1 1 3-10-2 1-2z" fill="#010600"/><path d="M378 447v4l-6 1v-3c3-2 3-2 6-2z" fill="#010a00"/><path d="M308 422l12 4v1c-4.877.348-7.771-.583-12-3v-2z" fill="#437a3a"/><path d="M329 330l4.875.313 2.742.176C339 331 339 331 341 334c-4.318-.508-8.033-1.197-12-3v-1z" fill="#832227"/><path d="M428 275c-2.906 1.257-4.796 2-8 2l-2 2v-2h-5v-1l5.25-1.062 2.953-.598c2.665-.324 4.286-.195 6.797.66z" fill="#3c3833"/><path d="M303 227c-1 3-1 3-4 5h-3l-1-3c2.906-1.257 4.796-2 8-2z" fill="#100"/><path d="M387 694l-10 5-1-2c6.5-4.125 6.5-4.125 11-3z" fill="#e4ac6c"/><path d="M559 657l5 2-3 3-4-2v-2l2-1z" fill="#201d18"/><path d="M612 652l3 1v6h-3v-7z" fill="#18120b"/><path d="M350 610c4 0 4 0 6 1-.75 4.75-.75 4.75-3 7l-.375-2.312c-.506-2.89-.506-2.89-2.625-5.687z" fill="#d3c7aa"/><path d="M360 609c4.692 1.482 4.692 1.482 6.188 4l.813 2 2 2c-2.539-.385-3.728-.701-5.484-2.629l-1.266-1.934-1.297-1.941L360 609z" fill="#b84143"/><path d="M437 526v5l-4 2v-6c2-1 2-1 4-1z" fill="#161c0f"/><path d="M446 514l11 2v2c-4.449.393-7.142-.847-11-3v-1z" fill="#4c8244"/><path d="M330 379l3 2c2.279.454 2.279.454 4.688.625l2.449.227L342 382v1l-13 1 1-5z" fill="#212121"/><path d="M378 252h2v3h3l1-3-1 5-4 1-1-6z" fill="#a76262"/><path d="M322 241c2.743 3.2 4.63 6.005 6 10l-3-1v-2h-2l-1-7z" fill="#2b0605"/><path d="M372 240h1l1 11c-2-1-2-1-3.25-4.375L370 243l2-3z" fill="#a4313b"/><path d="M362 727l7 1-1 2h-7l1-3z" fill="#0a0200"/><path d="M388 694l3 1-1 2h-2v2l-4 1c1.75-4.875 1.75-4.875 4-6z" fill="#080100"/><path d="M539 668h2c1.125 3.75 1.125 3.75 0 6l-5-1c1.875-3.875 1.875-3.875 3-5z" fill="#010000"/><path d="M355 605c2.622 1.049 3.794 1.649 5.25 4.125L361 611h-2v-2l-5 1 1-5z" fill="#240806"/><path d="M405 556c-2.762 2.762-5.207 2.579-9 3l1-3c3.287-.8 4.71-1.097 8 0z" fill="#49803f"/><path d="M418 551c0 3.575-.554 4.469-3 7-2.687.75-2.687.75-5 1l8-8z" fill="#bab198"/><path d="M418 542h2c-.75 1.938-.75 1.938-2 4-2.946 1.277-4.991.967-8 0l3.438-1.437c3.32-1.199 3.32-1.199 4.563-2.562z" fill="#395d33"/><path d="M388 495l-1 2h-8c1-2 1-2 2.813-2.687 2.376-.339 3.921-.041 6.188.688z" fill="#040000"/><path d="M317 494l6 1-1 3h-4l-1-4z" fill="#090501"/><path d="M473 390l3 1-1 13h-1l-1-14z" fill="#a0a0a0"/><path d="M344 310l5 1c-4.75 4-4.75 4-7 4 .875-3.875.875-3.875 2-5z" fill="#1d0203"/><path d="M375 725l1 3h-6l-2-2c2.463-1.231 4.28-1.072 7-1z" fill="#0c0000"/><path d="M396 692h1l1 9-3 1 1-10z" fill="#2d2820"/><path d="M604 622h5l2 4-5 1v-3l-2-2z" fill="#29231c"/><path d="M416 546c-.812 1.938-.812 1.938-2 4l-3 1v-3l-2-1c4.75-1 4.75-1 7-1z" fill="#4d8447"/><path d="M503 513l2 1 1 4-5 2 2-7z"/><path d="M306 311l3 1v5l2 1h-3l-3-6 1-1z" fill="#210202"/><path d="M452 306l2 1c-1.098 2.993-1.677 3.846-4.625 5.25L447 313l-1-2h2v-2l4-3z" fill="#427b37"/><path d="M374 292l3 1-3 4-5-1c2.313-2.062 2.313-2.062 5-4z" fill="#251e1a"/><path d="M546 293c1.938.813 1.938.813 4 2l1 3-5 1v-6z" fill="#b52830"/><path d="M407 284c-2.712 2.603-3.891 2.995-7.75 3.188L396 287c7.286-4.857 7.286-4.857 11-3z" fill="#86242b"/><path d="M393 271v4l-5 1v-4c3-1 3-1 5-1z" fill="#100807"/><path d="M406 268l-3 3v-2l-9 1c4.102-2.735 7.264-3.579 12-2z" fill="#280304"/><path d="M256 247l2 2-4 4h-2c.313-1.875.313-1.875 1-4l3-2z" fill="#080609"/><path d="M420 226l8 5-3 1-2-1-1 2-2-7z" fill="#8f2c34"/><path d="M369 208h18v1h-18v-1z"/><path d="M339 717h4l1 3-1 2-4-2v-3z" fill="#de504d"/><path d="M558 649h1l1 8-4 2 2-10z" fill="#3a322f"/><path d="M532 642l2 3-1 2 2 1-6 2 1-3h2v-5z" fill="#4f8946"/><path d="M338 595c1.938.375 1.938.375 4 1l1 2-6 2 1-5z" fill="#c3b49d"/><path d="M433 417l3 1c1.188 2.563 1.188 2.563 2 5-3.161-1.37-3.993-1.989-6-5l1-1z" fill="#4c8843"/><path d="M466.063 383.938L469 384l1 2-6 1-2-2c1-1 1-1 4.063-1.062z" fill="#39393b"/><path d="M303 329l-11 3 1-3c3.945-.807 6-1 10 0z" fill="#751f22"/><path d="M431 317l2 1-2 4h-6c1.933-2.025 3.632-3.421 6-5z" fill="#280404"/><path d="M334 314l2 1c-2.75 2.063-2.75 2.063-6 4-2.203-.379-2.203-.379-4-1l3.875-2.062 2.18-1.16L334 314z" fill="#2c2923"/><path d="M348 307l3 1-1 3-6-1c1.813-1.562 1.813-1.562 4-3z" fill="#211915"/><path d="M355 251h5l-2 9h-1l.125-3.375c.286-3.669.286-3.669-2.125-5.625z" fill="#a35e5b"/><path d="M323 233l3 1v2l-5 2v-4l2-1z" fill="#100101"/><path d="M492 269c5.126-.103 9.95-.036 15 1v1l-15-1v-1z" fill="#0f0f08"/><path d="M494 720h1l1 13-2 1v-14zm-2-19l1 2c2.025.652 2.025.652 4 1l-1 2-4 1v-6zm134-104h1c1.286 8.429 1.286 8.429 0 13h-1v-13zM183 424l3 3v2h-5l2-5zm327-77c3.625-.201 5.865.142 9 2l-1 3-8-4v-1zM177 719h1l1 9-2 1c-.95-3.695-.95-6.305 0-10zm372-395l-1 4h-2v-2l-3-1c2.076-.553 3.844-1 6-1zm47 354h3l-1 3c-2.062.688-2.062.688-4 1l2-4zm24-9l2 1-1 2-4 1v-3l3-1zM304.188 211.938L306 213l-7 2v-3c3-1 3-1 5.188-.062zM175 736l3 4-3 3v-7zm318-28h1v11h-1v-11zm31-36h11v1h-11v-1zm37-366c3 3.625 3 3.625 3 7l-3-1v-6zm-302-68l4 1v2h-4v-3zm99-29h11v1h-11v-1zm268 403l5 1-1 2h-4v-3z"/><path d="M195 519h2v5l-2 1c-1-3-1-3 0-6z" fill="#1a1a1a"/><path d="M185 454h1v10h-1v-10zm-7-77l3 1h-2l-1 3h-2l2-4zm354-23l3 1-1 2-4-1 2-2zm-45-25c4.75.875 4.75.875 7 2l-1 2-6-3v-1zM316 210c3 1 3 1 5 2v2c-1.937-.312-1.937-.312-4-1l-1-3z"/><path d="M395 210l9 1c-3.836.959-5.324.919-9 0v-1z" fill="#161715"/><path d="M306 211h10v1h-10v-1z" fill="#0d0d0d"/><path d="M626 619l2 4-2 3v-7z"/><path d="M190 410h3l2 5-3-1v-3l-2-1z" fill="#383938"/><path d="M348 210h9v1h-9v-1z"/><path d="M161 606h1v6l-2-3 1-3z" fill="#101010"/><path d="M199 515l4 1-4 2v-3z" fill="#000025"/><path d="M186 469h1v6l-2-3 1-3zm11.563-96.062L200 373l-3 2-3-1c1-1 1-1 3.563-1.062zM537 326h5l-1 3-4-2v-1zm-258-95l3 1-4 2 1-3zM179 703l2 1-1 4h-1v-5zm-19-286l1 4-2 1 1-5zm228-208h7v1h-7v-1zM164 678l2 3-3 1 1-4z"/><path d="M614 672l2 1-5 1 3-2z" fill="#050603"/><path d="M462 525h5l-3 2-2-2zm-273-42l1 4-2 1 1-5zm-2-4h2l-1 4-1-4zm-26-52h1v6h-1v-6z"/><path d="M195 411l2 1v2l-3-1 1-2z" fill="#5a775b"/><path d="M504 324l3 1-3 2v-3zm-3 0h2l-1 4-1-4zm11-55l1 3-4-1h3v-2zm37 318l2 1-3 2 1-3zm19-10l3 1-4 1 1-2zm2-4l2 2h-3l1-2zm-59-111l3 2-4-1 1-1z"/><path d="M507 456l2 4h-2v-4z" fill="#000100"/><path d="M186 445h1v5h-1v-5zm1-6h1v5h-1v-5zm351-46h1v5h-1v-5zm6-26l2 1-1 2-2-2 1-1zm-317-9h2l-1 3-1-3zm270-30l4 2-4-1v-1zm31-1h5v1h-5v-1zm-296-34l2 1-3 2 1-3zm5-29l2 1-3 2 1-3zm169-54l1 3-3-1h2v-2zm-63 1h5v1h-5v-1zm-21-2l2 2-3 1 1-3zM181 715l1 4zm434-130l3 1h-3v-1z"/><path d="M488 558v3z" fill="#606060"/><path d="M506 453l2 2-2 1v-3z"/><path d="M193 409l4 1z" fill="#000201"/><path d="M197 408l4 1zm-38-13h2v2h-2v-2zm12-9l2 2-2 1v-3zm48-21l3 1-3 1v-2zm282-29v3z"/><path d="M483 328l4 1z" fill="#010100"/><path d="M232 318l1 4z" fill="#000203"/><path d="M481 319h2v2h-2v-2zm38-49h2v2h-2v-2zM178 729l1 2-2-1 1-1zm0-13l1 2-2-1 1-1z"/><path d="M171 687l2 2h-2v-2z" fill="#010101"/><path d="M512 678l2 2h-2v-2zm41-4l3 1z"/><path d="M537 667l1 2-2-1 1-1z" fill="#030400"/><path d="M159 630h2l-1 2-1-2z" fill="#0303a8"/><path d="M502 579l2 2h-2v-2z"/><path d="M487 554h2l-1 2-1-2zm-10-5h2l-1 2-1-2z" fill="#010101"/><path d="M177 548h2l-1 2-1-2z"/><path d="M459 533h2l-1 2-1-2z" fill="#010101"/><path d="M515 441l3 1zm12-10l1 2-2-1 1-1z"/><path d="M188 414l2 1-2 1v-2z" fill="#010101"/><path d="M159 413h2l-1 2-1-2zm387-42l2 2h-2v-2zm-339-1l3 1zm3-1l3 1zm289-46l2 1-2 1v-2zm23-51l2 2h-2v-2z"/><path d="M516 272l3 1z" fill="#020200"/><path d="M527 268l2 1-2 1v-2zm-107-54l1 2-2-1 1-1zm-3-1h2l-1 2-1-2zm-91-1h2l-1 2-1-2zm-28-2l3 1zm199 549l2 1zm97-76l2 1zm2-1l2 1z"/><path d="M530 666l2 1z" fill="#010100"/><path d="M628 616l2 1zm-102-17l2 1zm21-13l2 1zm13-5l2 1zm6-5l2 1zm-70-9l2 1zm-321-13l2 1z"/><path d="M462 535l2 1z" fill="#010101"/><path d="M186 532l2 1zm271-7l2 1zm2-1l2 1z"/><path d="M499 521l2 1z" fill="#000002"/><path d="M465 521l2 1zm46-79l2 1zm-348-3l2 1z"/><path d="M526 435l2 1z" fill="#010101"/><path d="M159 433l2 1zm28-7l2 1zm-28-3l2 1zm29-12l2 1zm16-40l2 1zm9-9l2 1zm322-6l2 1zm-14-3l2 1zm12-1l2 1zm-25-6l2 1z"/><path d="M494 333l2 1z" fill="#000002"/><path d="M495 331l2 1zm0-2l2 1z" fill="#000001"/><path d="M543 327l2 1zm-19 0l2 1zm37-23l2 1zm-329-13l2 1z"/><path d="M540 280l2 1z" fill="#020103"/><path d="M236 275l2 1zm223-15l2 1zm-3-1l2 1zm-40-44l2 1zm-94-2l2 1z"/></svg>