<?xml version="1.0" encoding="utf-8"?>
<svg xmlns="http://www.w3.org/2000/svg" height="320" shape-rendering="crispEdges" viewBox="0 0 320 320" width="320">
  <rect fill="none" height="100%" width="100%"/>
  <rect fill="#ffffff" height="10" shape-rendering="crispEdges" width="20" x="160" y="40"/>
  <rect fill="#ffffff" height="10" shape-rendering="crispEdges" width="50" x="150" y="50"/>
  <rect fill="#ffffff" height="10" shape-rendering="crispEdges" width="90" x="120" y="60"/>
  <rect fill="#ffffff" height="10" shape-rendering="crispEdges" width="110" x="100" y="70"/>
  <rect fill="#ffffff" height="10" shape-rendering="crispEdges" width="120" x="80" y="80"/>
  <rect fill="#9cb4b8" height="10" shape-rendering="crispEdges" width="110" x="90" y="110"/>
  <rect fill="#9cb4b8" height="10" shape-rendering="crispEdges" width="110" x="90" y="120"/>
  <rect fill="#9cb4b8" height="10" shape-rendering="crispEdges" width="110" x="90" y="130"/>
  <rect fill="#9cb4b8" height="10" shape-rendering="crispEdges" width="120" x="90" y="140"/>
  <rect fill="#9cb4b8" height="10" shape-rendering="crispEdges" width="120" x="90" y="150"/>
  <rect fill="#9cb4b8" height="10" shape-rendering="crispEdges" width="20" x="30" y="160"/>
  <rect fill="#9cb4b8" height="10" shape-rendering="crispEdges" width="180" x="90" y="160"/>
  <rect fill="#ffffff" height="10" shape-rendering="crispEdges" width="10" x="290" y="160"/>
  <rect fill="#9cb4b8" height="10" shape-rendering="crispEdges" width="20" x="30" y="170"/>
  <rect fill="#9cb4b8" height="10" shape-rendering="crispEdges" width="50" x="90" y="170"/>
  <rect fill="#ffffff" height="10" shape-rendering="crispEdges" width="60" x="140" y="170"/>
  <rect fill="#9cb4b8" height="10" shape-rendering="crispEdges" width="70" x="200" y="170"/>
  <rect fill="#ffffff" height="10" shape-rendering="crispEdges" width="10" x="290" y="170"/>
  <rect fill="#9cb4b8" height="10" shape-rendering="crispEdges" width="100" x="30" y="180"/>
  <rect fill="#ffffff" height="10" shape-rendering="crispEdges" width="90" x="130" y="180"/>
  <rect fill="#9cb4b8" height="10" shape-rendering="crispEdges" width="50" x="220" y="180"/>
  <rect fill="#9cb4b8" height="10" shape-rendering="crispEdges" width="10" x="280" y="180"/>
  <rect fill="#ffffff" height="10" shape-rendering="crispEdges" width="10" x="290" y="180"/>
  <rect fill="#f3322c" height="10" shape-rendering="crispEdges" width="90" x="30" y="190"/>
  <rect fill="#ffffff" height="10" shape-rendering="crispEdges" width="20" x="120" y="190"/>
  <rect fill="#000000" height="10" shape-rendering="crispEdges" width="60" x="140" y="190"/>
  <rect fill="#ffffff" height="10" shape-rendering="crispEdges" width="20" x="200" y="190"/>
  <rect fill="#f3322c" height="10" shape-rendering="crispEdges" width="50" x="220" y="190"/>
  <rect fill="#ffffff" height="10" shape-rendering="crispEdges" width="10" x="290" y="190"/>
  <rect fill="#9cb4b8" height="10" shape-rendering="crispEdges" width="70" x="40" y="200"/>
  <rect fill="#ffffff" height="10" shape-rendering="crispEdges" width="110" x="110" y="200"/>
  <rect fill="#9cb4b8" height="10" shape-rendering="crispEdges" width="50" x="220" y="200"/>
  <rect fill="#ffffff" height="10" shape-rendering="crispEdges" width="10" x="290" y="200"/>
</svg>